<svg width="356" height="34" viewBox="0 0 356 34" fill="none" xmlns="http://www.w3.org/2000/svg">
<path d="M0.624 18.28C0.624 15.2507 0.944 12.776 1.584 10.856C2.224 8.89333 3.248 7.35733 4.656 6.248C6.10667 5.13866 7.984 4.37066 10.288 3.944C12.6347 3.47466 15.4933 3.24 18.864 3.24C20.4853 3.24 22.0213 3.304 23.472 3.432C24.9653 3.51733 26.5013 3.688 28.08 3.944C29.488 4.15733 30.4053 4.49866 30.832 4.968C31.3013 5.39466 31.536 5.992 31.536 6.76V8.872C30.5547 8.44533 29.3173 8.104 27.824 7.848C26.3307 7.54933 24.7947 7.336 23.216 7.208C21.68 7.03733 20.2933 6.952 19.056 6.952C16.24 6.952 13.9573 7.272 12.208 7.912C10.5013 8.552 9.264 9.68267 8.496 11.304C7.728 12.9253 7.344 15.2507 7.344 18.28C7.344 21.3093 7.70667 23.656 8.432 25.32C9.2 26.9413 10.4587 28.072 12.208 28.712C14 29.352 16.432 29.672 19.504 29.672C20.6987 29.672 22 29.608 23.408 29.48C24.816 29.3093 26.224 29.096 27.632 28.84C29.04 28.584 30.3413 28.2853 31.536 27.944V29.928C31.536 30.6107 31.3013 31.1867 30.832 31.656C30.4053 32.1253 29.4453 32.4667 27.952 32.68C26.416 32.9787 24.88 33.1707 23.344 33.256C21.808 33.3413 20.2507 33.384 18.672 33.384C15.216 33.384 12.3147 33.1707 9.968 32.744C7.664 32.3173 5.82933 31.5493 4.464 30.44C3.09867 29.3307 2.11733 27.7947 1.52 25.832C0.922667 23.8693 0.624 21.352 0.624 18.28ZM39.3255 33C38.3015 33 37.6402 32.8507 37.3415 32.552C37.0855 32.2533 36.9575 31.6347 36.9575 30.696V0.743999H42.9735V8.296C43.4855 8.12533 44.1468 7.99733 44.9575 7.912C45.8108 7.784 46.7068 7.67733 47.6455 7.592C48.6268 7.50667 49.5228 7.464 50.3335 7.464C53.0215 7.464 55.1548 7.69867 56.7335 8.168C58.3122 8.63733 59.4855 9.34133 60.2535 10.28C61.0642 11.176 61.5975 12.3067 61.8535 13.672C62.1095 15.0373 62.2375 16.6587 62.2375 18.536V30.056C62.2375 30.9093 62.1522 31.5493 61.9815 31.976C61.8535 32.4027 61.5975 32.68 61.2135 32.808C60.8295 32.936 60.2535 33 59.4855 33H56.3495V17.384C56.3495 15.464 56.0935 14.0133 55.5815 13.032C55.0695 12.0507 54.2802 11.3893 53.2135 11.048C52.1895 10.664 50.8882 10.472 49.3095 10.472C48.7122 10.472 47.9868 10.5147 47.1335 10.6C46.3228 10.6427 45.5335 10.728 44.7655 10.856C44.0402 10.9413 43.4428 11.0907 42.9735 11.304V33H39.3255ZM74.975 33H70.879C70.239 33 69.7483 32.8293 69.407 32.488C69.0657 32.1467 68.895 31.5067 68.895 30.568V8.744C69.919 8.44533 71.3483 8.12533 73.183 7.784C75.0177 7.44267 77.215 7.272 79.775 7.272C82.2923 7.272 84.2763 7.44267 85.727 7.784C87.1777 8.08267 88.2443 8.552 88.927 9.192C89.6523 9.78933 90.1003 10.536 90.271 11.432C90.4843 12.2853 90.591 13.288 90.591 14.44H84.831L84.767 13.544C84.767 12.52 84.4897 11.7947 83.935 11.368C83.423 10.8987 82.8043 10.6 82.079 10.472C81.3537 10.344 80.6283 10.28 79.903 10.28C78.7937 10.28 77.791 10.3867 76.895 10.6C76.0417 10.8133 75.4017 11.0907 74.975 11.432V33ZM107.814 33.384C105.681 33.384 103.782 33.2347 102.118 32.936C100.497 32.5947 99.0887 31.976 97.894 31.08C96.742 30.184 95.8673 28.8613 95.27 27.112C94.6727 25.3627 94.374 23.08 94.374 20.264C94.374 17.448 94.6727 15.1653 95.27 13.416C95.8673 11.6667 96.742 10.344 97.894 9.448C99.0887 8.552 100.497 7.95466 102.118 7.656C103.782 7.31467 105.681 7.144 107.814 7.144C109.862 7.144 111.697 7.31467 113.318 7.656C114.982 7.95466 116.39 8.552 117.542 9.448C118.694 10.344 119.569 11.6667 120.166 13.416C120.806 15.1653 121.126 17.448 121.126 20.264C121.126 23.1227 120.806 25.4267 120.166 27.176C119.569 28.9253 118.694 30.248 117.542 31.144C116.39 31.9973 114.982 32.5947 113.318 32.936C111.697 33.2347 109.862 33.384 107.814 33.384ZM107.814 30.184C109.35 30.184 110.651 29.9493 111.718 29.48C112.827 29.0107 113.659 28.072 114.214 26.664C114.769 25.256 115.046 23.1227 115.046 20.264C115.046 17.4053 114.769 15.272 114.214 13.864C113.659 12.456 112.827 11.5173 111.718 11.048C110.651 10.5787 109.35 10.344 107.814 10.344C106.278 10.344 104.955 10.5787 103.846 11.048C102.737 11.5173 101.883 12.456 101.286 13.864C100.731 15.272 100.454 17.4053 100.454 20.264C100.454 23.1227 100.731 25.256 101.286 26.664C101.883 28.072 102.737 29.0107 103.846 29.48C104.955 29.9493 106.278 30.184 107.814 30.184ZM129 33C127.805 33 127.208 32.4027 127.208 31.208V9.192C128.488 8.68 130.216 8.232 132.392 7.848C134.568 7.42133 137.042 7.208 139.816 7.208C142.546 7.208 144.722 7.37867 146.344 7.72C148.008 8.06133 149.266 8.616 150.12 9.384C150.973 10.1093 151.528 11.0693 151.784 12.264C152.082 13.4587 152.232 14.9307 152.232 16.68V30.568C152.232 31.1653 152.168 31.656 152.04 32.04C151.954 32.424 151.72 32.68 151.336 32.808C150.994 32.936 150.461 33 149.736 33H146.216V15.4C146.216 13.736 145.704 12.5413 144.68 11.816C143.656 11.0907 142.034 10.728 139.816 10.728C139.133 10.728 138.365 10.792 137.512 10.92C136.658 11.0053 135.848 11.1547 135.08 11.368C134.312 11.5813 133.693 11.8587 133.224 12.2V33H129ZM171.439 33.384C169.306 33.384 167.407 33.2347 165.743 32.936C164.122 32.5947 162.714 31.976 161.519 31.08C160.367 30.184 159.492 28.8613 158.895 27.112C158.298 25.3627 157.999 23.08 157.999 20.264C157.999 17.448 158.298 15.1653 158.895 13.416C159.492 11.6667 160.367 10.344 161.519 9.448C162.714 8.552 164.122 7.95466 165.743 7.656C167.407 7.31467 169.306 7.144 171.439 7.144C173.487 7.144 175.322 7.31467 176.943 7.656C178.607 7.95466 180.015 8.552 181.167 9.448C182.319 10.344 183.194 11.6667 183.791 13.416C184.431 15.1653 184.751 17.448 184.751 20.264C184.751 23.1227 184.431 25.4267 183.791 27.176C183.194 28.9253 182.319 30.248 181.167 31.144C180.015 31.9973 178.607 32.5947 176.943 32.936C175.322 33.2347 173.487 33.384 171.439 33.384ZM171.439 30.184C172.975 30.184 174.276 29.9493 175.343 29.48C176.452 29.0107 177.284 28.072 177.839 26.664C178.394 25.256 178.671 23.1227 178.671 20.264C178.671 17.4053 178.394 15.272 177.839 13.864C177.284 12.456 176.452 11.5173 175.343 11.048C174.276 10.5787 172.975 10.344 171.439 10.344C169.903 10.344 168.58 10.5787 167.471 11.048C166.362 11.5173 165.508 12.456 164.911 13.864C164.356 15.272 164.079 17.4053 164.079 20.264C164.079 23.1227 164.356 25.256 164.911 26.664C165.508 28.072 166.362 29.0107 167.471 29.48C168.58 29.9493 169.903 30.184 171.439 30.184ZM188.657 3.56H219.632V7.208H207.473V30.504C207.473 31.4427 207.323 32.104 207.025 32.488C206.769 32.8293 206.15 33 205.169 33H200.881V7.208H188.657V3.56ZM234.944 33.384C232.341 33.384 230.144 33.2133 228.352 32.872C226.602 32.5307 225.194 31.8907 224.128 30.952C223.104 30.0133 222.378 28.712 221.952 27.048C221.525 25.384 221.312 23.2293 221.312 20.584C221.312 17.4267 221.717 14.8667 222.528 12.904C223.338 10.9413 224.768 9.512 226.816 8.616C228.906 7.67733 231.808 7.208 235.52 7.208C238.421 7.208 240.725 7.57067 242.432 8.296C244.181 8.97867 245.44 10.0667 246.208 11.56C246.976 13.0533 247.36 14.952 247.36 17.256V21.352H229.376C229.376 20.6693 229.525 20.1147 229.824 19.688C230.122 19.2613 230.677 19.048 231.488 19.048H241.984L241.92 17.384C241.877 14.9947 241.365 13.2453 240.384 12.136C239.445 11.0267 237.738 10.472 235.264 10.472C233.216 10.472 231.616 10.792 230.464 11.432C229.312 12.072 228.501 13.1173 228.032 14.568C227.562 15.976 227.328 17.9387 227.328 20.456C227.328 23.0587 227.584 25.0427 228.095 26.408C228.65 27.7307 229.546 28.6267 230.784 29.096C232.064 29.5653 233.834 29.8 236.096 29.8C236.906 29.8 237.845 29.7787 238.912 29.736C240.021 29.6933 241.13 29.6293 242.24 29.544C243.392 29.4587 244.416 29.352 245.312 29.224C246.208 29.096 246.805 28.968 247.104 28.84V29.736C247.104 30.2053 246.997 30.6747 246.784 31.144C246.57 31.6133 246.122 31.9973 245.44 32.296C244.544 32.7227 243.221 33 241.472 33.128C239.765 33.2987 237.589 33.384 234.944 33.384ZM264.606 33.384C261.96 33.384 259.806 33.256 258.142 33C256.478 32.7867 255.198 32.3813 254.302 31.784C253.406 31.1867 252.787 30.376 252.446 29.352C252.147 28.328 251.998 27.048 251.998 25.512C251.998 23.336 252.232 21.6933 252.702 20.584C253.214 19.432 254.067 18.6427 255.262 18.216C256.499 17.7893 258.142 17.576 260.19 17.576C261.256 17.576 262.43 17.5973 263.71 17.64C265.032 17.6827 266.291 17.7467 267.486 17.832C268.723 17.8747 269.79 17.9387 270.686 18.024C271.624 18.1093 272.243 18.216 272.542 18.344C272.542 16.552 272.392 15.144 272.094 14.12C271.795 13.096 271.304 12.328 270.622 11.816C269.982 11.304 269.171 10.9627 268.19 10.792C267.208 10.6213 266.056 10.536 264.734 10.536C263.283 10.536 261.832 10.5787 260.382 10.664C258.974 10.7493 257.63 10.8987 256.35 11.112C255.112 11.3253 254.088 11.6027 253.278 11.944V10.728C253.278 9.74667 253.534 9.04267 254.046 8.616C254.6 8.18933 255.262 7.912 256.03 7.784C256.883 7.57067 258.142 7.4 259.806 7.272C261.47 7.144 263.24 7.10133 265.118 7.144C267.507 7.144 269.534 7.272 271.198 7.528C272.904 7.74133 274.27 8.21067 275.294 8.936C276.36 9.66133 277.128 10.7493 277.598 12.2C278.11 13.6507 278.366 15.592 278.366 18.024V31.08C277.982 31.8907 276.68 32.488 274.462 32.872C272.243 33.2133 268.958 33.384 264.606 33.384ZM264.606 30.696C266.312 30.696 267.699 30.6533 268.766 30.568C269.875 30.44 270.728 30.2907 271.326 30.12C271.923 29.9067 272.328 29.6507 272.542 29.352V20.52C272.158 20.392 271.475 20.2853 270.494 20.2C269.512 20.072 268.488 19.9653 267.422 19.88C266.355 19.7947 265.459 19.752 264.734 19.752C263.155 19.752 261.875 19.8587 260.894 20.072C259.912 20.2853 259.208 20.776 258.782 21.544C258.355 22.312 258.142 23.5067 258.142 25.128C258.142 26.4507 258.291 27.5173 258.59 28.328C258.888 29.1387 259.486 29.736 260.382 30.12C261.32 30.504 262.728 30.696 264.606 30.696ZM287.327 33C286.346 33 285.684 32.8507 285.343 32.552C285.044 32.2533 284.895 31.6133 284.895 30.632V9.256C285.364 9.128 285.962 8.95733 286.687 8.744C287.455 8.53067 288.33 8.31733 289.311 8.104C290.335 7.848 291.444 7.656 292.639 7.528C293.876 7.4 295.156 7.336 296.479 7.336C298.015 7.336 299.338 7.464 300.447 7.72C301.556 7.93333 302.516 8.36 303.327 9C304.138 9.59733 304.799 10.472 305.311 11.624L304.287 11.56C304.628 10.7493 305.14 10.0667 305.823 9.512C306.506 8.91467 307.274 8.46667 308.127 8.168C309.023 7.82667 309.94 7.592 310.879 7.464C311.818 7.336 312.692 7.272 313.503 7.272C316.063 7.272 318.068 7.528 319.519 8.04C321.012 8.50933 322.058 9.32 322.655 10.472C323.295 11.624 323.615 13.2027 323.615 15.208V30.824C323.615 31.72 323.444 32.3173 323.103 32.616C322.804 32.872 322.207 33 321.311 33H317.663C317.663 30.0133 317.663 27.0267 317.663 24.04C317.663 21.0533 317.663 18.0453 317.663 15.016C317.62 13.1813 317.194 11.944 316.383 11.304C315.572 10.664 314.335 10.344 312.671 10.344C311.903 10.344 311.092 10.4507 310.239 10.664C309.428 10.8773 308.724 11.176 308.127 11.56C307.572 11.944 307.295 12.392 307.295 12.904V33H301.279V13.672C301.279 12.648 300.81 11.8587 299.871 11.304C298.932 10.7067 297.716 10.408 296.223 10.408C295.327 10.408 294.495 10.4933 293.727 10.664C292.959 10.792 292.319 10.984 291.807 11.24C291.295 11.496 290.996 11.8373 290.911 12.264V33H287.327ZM340.126 33.256C339.315 33.256 338.355 33.2347 337.246 33.192C336.137 33.1493 335.006 33.064 333.854 32.936C332.745 32.7653 331.742 32.5307 330.846 32.232C330.291 32.104 329.843 31.9333 329.502 31.72C329.203 31.5067 328.969 31.144 328.798 30.632C328.67 30.0773 328.606 29.2453 328.606 28.136C329.673 28.6053 330.867 28.9893 332.19 29.288C333.513 29.544 334.814 29.7147 336.094 29.8C337.417 29.8853 338.547 29.928 339.486 29.928C340.638 29.928 341.769 29.8853 342.878 29.8C344.03 29.7147 345.075 29.5227 346.014 29.224C346.995 28.9253 347.763 28.456 348.318 27.816C348.915 27.176 349.214 26.3013 349.214 25.192C349.214 23.6987 348.83 22.7387 348.062 22.312C347.294 21.8853 346.227 21.672 344.862 21.672H338.142C336.478 21.672 334.921 21.5653 333.47 21.352C332.062 21.1387 330.91 20.584 330.014 19.688C329.161 18.792 328.734 17.2773 328.734 15.144C328.734 12.7973 329.31 11.048 330.462 9.896C331.614 8.744 333.235 7.99733 335.326 7.656C337.459 7.31467 339.955 7.144 342.814 7.144C343.881 7.144 345.118 7.16533 346.526 7.208C347.977 7.25067 349.321 7.37867 350.558 7.592C351.582 7.67733 352.393 7.848 352.99 8.104C353.63 8.31733 354.099 8.63733 354.398 9.064C354.697 9.448 354.846 10.0453 354.846 10.856V12.328C354.462 11.8587 353.801 11.5173 352.862 11.304C351.923 11.048 350.814 10.856 349.534 10.728C348.297 10.6 346.995 10.536 345.63 10.536C344.307 10.4933 343.07 10.472 341.918 10.472C340.681 10.472 339.486 10.5573 338.334 10.728C337.225 10.856 336.329 11.2187 335.646 11.816C334.963 12.4133 334.622 13.3947 334.622 14.76C334.622 15.8267 334.835 16.5947 335.262 17.064C335.689 17.5333 336.286 17.832 337.054 17.96C337.822 18.088 338.697 18.152 339.678 18.152H346.718C348.425 18.152 349.918 18.3013 351.198 18.6C352.478 18.8987 353.481 19.5387 354.206 20.52C354.931 21.5013 355.294 23.0373 355.294 25.128C355.294 27.5173 354.633 29.288 353.31 30.44C351.987 31.592 350.195 32.36 347.934 32.744C345.673 33.0853 343.07 33.256 340.126 33.256Z" fill="#007BFF"/>
</svg>
