<svg width="600" height="100" viewBox="0 0 600 100" fill="none" xmlns="http://www.w3.org/2000/svg">
<path d="M19.344 53.584C19.344 63.7387 20.5813 71.0347 23.056 75.472C25.5307 79.824 29.2 82 34.064 82C37.136 82 39.824 81.7867 42.128 81.36C44.432 80.848 46.5227 80.592 48.4 80.592C51.8133 80.592 54.288 81.3173 55.824 82.768C57.36 84.1333 58.128 85.9253 58.128 88.144C58.128 91.0453 57.0613 93.264 54.928 94.8C52.88 96.336 50.2347 97.4027 46.992 98C43.8347 98.5973 40.592 98.896 37.264 98.896C28.048 98.896 20.7093 97.1893 15.248 93.776C9.872 90.3627 5.98933 85.328 3.6 78.672C1.296 71.9307 0.144 63.568 0.144 53.584C0.144 43.6 1.296 35.152 3.6 28.24C5.98933 21.2427 9.872 15.952 15.248 12.368C20.7093 8.784 28.048 6.992 37.264 6.992C40.592 6.992 43.8347 7.29066 46.992 7.88799C50.2347 8.48533 52.88 9.552 54.928 11.088C57.0613 12.624 58.128 14.8427 58.128 17.744C58.128 19.8773 57.36 21.6693 55.824 23.12C54.288 24.5707 51.8133 25.296 48.4 25.296C46.5227 25.296 44.432 25.0827 42.128 24.656C39.824 24.144 37.136 23.888 34.064 23.888C28.0907 23.888 24.1227 26.32 22.16 31.184C20.2827 35.9627 19.344 43.4293 19.344 53.584ZM88.362 90.448C88.362 96.1653 85.3753 99.024 79.402 99.024C76.5007 99.024 74.1967 98.2987 72.49 96.848C70.7833 95.3973 69.93 93.264 69.93 90.448V10.448C69.93 3.792 73.0447 0.463997 79.274 0.463997C85.418 0.463997 88.49 3.792 88.49 10.448V24.144C88.49 26.5333 88.234 28.8373 87.722 31.056C87.21 33.2747 86.3567 35.5787 85.162 37.968C86.6127 36.176 88.5327 34.896 90.922 34.128C93.3113 33.36 96.0847 32.976 99.242 32.976C104.874 32.976 109.781 34.0853 113.962 36.304C118.143 38.5227 121.386 41.6373 123.69 45.648C126.079 49.5733 127.274 54.2667 127.274 59.728V90.448C127.274 96.1653 124.287 99.024 118.314 99.024C115.413 99.024 113.109 98.2987 111.402 96.848C109.695 95.3973 108.842 93.264 108.842 90.448V60.496C108.842 56.4853 107.903 53.456 106.026 51.408C104.234 49.36 101.717 48.336 98.474 48.336C95.3167 48.336 92.842 49.4027 91.05 51.536C89.258 53.584 88.362 56.5707 88.362 60.496V90.448ZM150.274 99.024C144.13 99.024 141.058 96.1227 141.058 90.32V41.808C141.058 35.92 144.13 32.976 150.274 32.976C153.346 32.976 155.565 33.6587 156.93 35.024C158.295 36.304 158.978 38.4373 158.978 41.424C160.514 38.608 162.69 36.5173 165.506 35.152C168.407 33.7013 171.778 32.976 175.618 32.976C182.957 32.976 186.626 36.176 186.626 42.576C186.626 44.9653 185.73 46.7573 183.938 47.952C182.146 49.1467 179.202 49.744 175.106 49.744C171.095 49.744 167.938 50.128 165.634 50.896C163.33 51.5787 161.709 52.9013 160.77 54.864C159.917 56.7413 159.49 59.472 159.49 63.056V90.32C159.49 96.1227 156.418 99.024 150.274 99.024ZM216.923 99.024C207.792 99.024 200.582 96.4213 195.291 91.216C190 86.0107 187.355 77.6053 187.355 66C187.355 54.3093 190 45.904 195.291 40.784C200.582 35.5787 207.792 32.976 216.923 32.976C226.054 32.976 233.264 35.5787 238.555 40.784C243.846 45.904 246.491 54.3093 246.491 66C246.491 77.6053 243.846 86.0107 238.555 91.216C233.264 96.4213 226.054 99.024 216.923 99.024ZM216.923 83.664C219.312 83.664 221.318 83.1947 222.939 82.256C224.56 81.232 225.798 79.44 226.651 76.88C227.59 74.32 228.059 70.6933 228.059 66C228.059 61.3067 227.59 57.68 226.651 55.12C225.798 52.56 224.56 50.8107 222.939 49.872C221.318 48.848 219.312 48.336 216.923 48.336C214.619 48.336 212.614 48.848 210.907 49.872C209.286 50.8107 208.006 52.56 207.067 55.12C206.214 57.68 205.787 61.3067 205.787 66C205.787 70.6933 206.214 74.32 207.067 76.88C208.006 79.44 209.286 81.232 210.907 82.256C212.614 83.1947 214.619 83.664 216.923 83.664ZM268.024 99.024C261.88 99.024 258.808 96.1227 258.808 90.32V59.6C258.808 51.408 261.411 44.9227 266.616 40.144C271.907 35.3653 278.861 32.976 287.48 32.976C296.099 32.976 303.011 35.3653 308.216 40.144C313.507 44.9227 316.152 51.408 316.152 59.6V90.32C316.152 96.1227 313.08 99.024 306.936 99.024C300.792 99.024 297.72 96.1227 297.72 90.32V60.624C297.72 56.6133 296.824 53.584 295.032 51.536C293.24 49.4027 290.723 48.336 287.48 48.336C284.237 48.336 281.72 49.4027 279.928 51.536C278.136 53.584 277.24 56.6133 277.24 60.624V90.32C277.24 96.1227 274.168 99.024 268.024 99.024ZM358.048 99.024C348.917 99.024 341.707 96.4213 336.416 91.216C331.125 86.0107 328.48 77.6053 328.48 66C328.48 54.3093 331.125 45.904 336.416 40.784C341.707 35.5787 348.917 32.976 358.048 32.976C367.179 32.976 374.389 35.5787 379.68 40.784C384.971 45.904 387.616 54.3093 387.616 66C387.616 77.6053 384.971 86.0107 379.68 91.216C374.389 96.4213 367.179 99.024 358.048 99.024ZM358.048 83.664C360.437 83.664 362.443 83.1947 364.064 82.256C365.685 81.232 366.923 79.44 367.776 76.88C368.715 74.32 369.184 70.6933 369.184 66C369.184 61.3067 368.715 57.68 367.776 55.12C366.923 52.56 365.685 50.8107 364.064 49.872C362.443 48.848 360.437 48.336 358.048 48.336C355.744 48.336 353.739 48.848 352.032 49.872C350.411 50.8107 349.131 52.56 348.192 55.12C347.339 57.68 346.912 61.3067 346.912 66C346.912 70.6933 347.339 74.32 348.192 76.88C349.131 79.44 350.411 81.232 352.032 82.256C353.739 83.1947 355.744 83.664 358.048 83.664ZM405.961 98C404.34 98 402.974 97.36 401.865 96.08C400.756 94.8 400.201 93.1787 400.201 91.216V33.616C400.201 30.8 400.585 27.856 401.353 24.784C402.206 21.712 403.742 18.8533 405.961 16.208C408.265 13.4773 411.508 11.2587 415.689 9.55199C419.87 7.84533 425.332 6.992 432.073 6.992C441.033 6.992 447.988 9.21066 452.937 13.648C457.886 18.0853 460.361 24.7413 460.361 33.616C460.361 37.2 459.678 40.4853 458.313 43.472C457.033 46.4587 455.07 48.72 452.425 50.256C456.606 52.1333 459.593 54.736 461.385 58.064C463.262 61.392 464.201 66 464.201 71.888C464.201 80.4213 461.556 86.9067 456.265 91.344C451.06 95.7813 442.996 98 432.073 98H405.961ZM417.737 47.952C418.846 46.5867 420.638 45.52 423.113 44.752C425.673 43.984 428.66 43.6 432.073 43.6C436.084 43.6 438.814 42.8747 440.265 41.424C441.801 39.888 442.569 37.2853 442.569 33.616C442.569 29.3493 441.673 26.32 439.881 24.528C438.174 22.6507 435.572 21.712 432.073 21.712C427.124 21.712 423.625 22.608 421.577 24.4C419.614 26.192 418.633 29.264 418.633 33.616C418.633 36.2613 418.59 38.3947 418.505 40.016C418.505 41.552 418.42 42.9173 418.249 44.112C418.164 45.3067 417.993 46.5867 417.737 47.952ZM418.633 83.152H432.073C437.193 83.152 440.734 82.256 442.697 80.464C444.745 78.672 445.769 75.8133 445.769 71.888C445.769 66.3413 444.702 62.3733 442.569 59.984C440.521 57.5947 437.022 56.4 432.073 56.4C428.574 56.4 425.844 56.8693 423.881 57.808C421.918 58.6613 420.553 60.1973 419.785 62.416C419.017 64.6347 418.633 67.792 418.633 71.888V83.152ZM503.423 99.024C494.292 99.024 487.082 96.4213 481.791 91.216C476.5 86.0107 473.855 77.6053 473.855 66C473.855 54.3093 476.5 45.904 481.791 40.784C487.082 35.5787 494.292 32.976 503.423 32.976C512.554 32.976 519.764 35.5787 525.055 40.784C530.346 45.904 532.991 54.3093 532.991 66C532.991 77.6053 530.346 86.0107 525.055 91.216C519.764 96.4213 512.554 99.024 503.423 99.024ZM503.423 83.664C505.812 83.664 507.818 83.1947 509.439 82.256C511.06 81.232 512.298 79.44 513.151 76.88C514.09 74.32 514.559 70.6933 514.559 66C514.559 61.3067 514.09 57.68 513.151 55.12C512.298 52.56 511.06 50.8107 509.439 49.872C507.818 48.848 505.812 48.336 503.423 48.336C501.119 48.336 499.114 48.848 497.407 49.872C495.786 50.8107 494.506 52.56 493.567 55.12C492.714 57.68 492.287 61.3067 492.287 66C492.287 70.6933 492.714 74.32 493.567 76.88C494.506 79.44 495.786 81.232 497.407 82.256C499.114 83.1947 501.119 83.664 503.423 83.664ZM551.735 99.024C550.37 99.024 548.876 98.7253 547.255 98.128C545.719 97.616 544.354 96.72 543.159 95.44C542.05 94.16 541.495 92.5387 541.495 90.576C541.495 87.504 542.946 83.792 545.847 79.44C548.834 75.0027 552.887 70.352 558.007 65.488L544.439 48.08C543.842 47.2267 543.244 46.288 542.647 45.264C542.135 44.1547 541.879 43.0453 541.879 41.936C541.879 40.7413 542.135 39.5467 542.647 38.352C543.244 37.072 544.226 35.8347 545.591 34.64C546.53 33.872 547.468 33.36 548.407 33.104C549.346 32.7627 550.242 32.592 551.095 32.592C552.716 32.592 554.167 32.976 555.447 33.744C556.812 34.4267 557.836 35.2373 558.519 36.176L571.959 53.328C573.922 51.024 575.628 48.592 577.079 46.032C578.615 43.472 579.852 41.1253 580.791 38.992C581.644 37.0293 582.754 35.4933 584.119 34.384C585.484 33.1893 587.106 32.592 588.983 32.592C591.543 32.592 593.847 33.36 595.895 34.896C597.943 36.3467 598.967 38.5653 598.967 41.552C598.967 44.7093 597.644 48.336 594.999 52.432C592.439 56.528 588.471 61.1787 583.095 66.384L597.175 83.664C597.858 84.432 598.412 85.3707 598.839 86.48C599.351 87.504 599.607 88.6133 599.607 89.808C599.607 90.9173 599.308 92.112 598.711 93.392C598.199 94.5867 597.303 95.7813 596.023 96.976C595.17 97.744 594.274 98.256 593.335 98.512C592.396 98.8533 591.458 99.024 590.519 99.024C588.898 99.024 587.447 98.64 586.167 97.872C584.887 97.104 583.863 96.2933 583.095 95.44L568.887 78.032C567.095 80.1653 565.303 82.6827 563.511 85.584C561.804 88.4853 560.354 91.216 559.159 93.776C558.391 95.4827 557.41 96.8053 556.215 97.744C555.106 98.5973 553.612 99.024 551.735 99.024Z" fill="#007BFF"/>
</svg>
