<svg width="90" height="58" viewBox="0 0 90 58" fill="none" xmlns="http://www.w3.org/2000/svg">
<path d="M8 4C8 3 8.5 2.5 9.5 2.5H86.48C87.48 2.5 87.98 3 87.98 4V40.12C87.98 41.04 87.66 41.84 87.02 42.52L75.02 54.52C74.34 55.16 73.54 55.48 72.62 55.48H60.02C59.62 55.48 59.3 55.4 59.06 55.24C58.82 55.08 58.54 54.84 58.22 54.52L49.82 45.1L47.6 44.2L45.98 45.1L37.58 54.52C37.26 54.84 36.98 55.08 36.74 55.24C36.54 55.4 36.22 55.48 35.78 55.48H23.42C22.46 55.48 21.66 55.16 21.02 54.52L9.02 42.52C8.34 41.84 8 41.04 8 40.12V4ZM21.5 27.88C21.5 31.2 22.16 33.46 23.48 34.66C24.8 35.9 27.3 36.52 30.98 36.52C34.7 36.52 37.22 35.9 38.54 34.66C39.86 33.46 40.52 31.2 40.52 27.88C40.52 24.6 39.86 22.34 38.54 21.1C37.22 19.9 34.7 19.3 30.98 19.3C27.3 19.3 24.8 19.9 23.48 21.1C22.16 22.34 21.5 24.6 21.5 27.88ZM55.52 27.88C55.52 31.2 56.18 33.46 57.5 34.66C58.82 35.9 61.32 36.52 65 36.52C68.68 36.52 71.18 35.9 72.5 34.66C73.82 33.46 74.48 31.2 74.48 27.88C74.48 24.6 73.82 22.34 72.5 21.1C71.18 19.9 68.68 19.3 65 19.3C61.32 19.3 58.82 19.9 57.5 21.1C56.18 22.34 55.52 24.6 55.52 27.88Z" fill="black"/>
<mask id="mask0_2_103" style="mask-type:luminance" maskUnits="userSpaceOnUse" x="6" y="0" width="84" height="58">
<path d="M90 0H6V58H90V0Z" fill="white"/>
<path d="M8 4C8 3 8.5 2.5 9.5 2.5H86.48C87.48 2.5 87.98 3 87.98 4V40.12C87.98 41.04 87.66 41.84 87.02 42.52L75.02 54.52C74.34 55.16 73.54 55.48 72.62 55.48H60.02C59.62 55.48 59.3 55.4 59.06 55.24C58.82 55.08 58.54 54.84 58.22 54.52L49.82 45.1L47.6 44.2L45.98 45.1L37.58 54.52C37.26 54.84 36.98 55.08 36.74 55.24C36.54 55.4 36.22 55.48 35.78 55.48H23.42C22.46 55.48 21.66 55.16 21.02 54.52L9.02 42.52C8.34 41.84 8 41.04 8 40.12V4ZM21.5 27.88C21.5 31.2 22.16 33.46 23.48 34.66C24.8 35.9 27.3 36.52 30.98 36.52C34.7 36.52 37.22 35.9 38.54 34.66C39.86 33.46 40.52 31.2 40.52 27.88C40.52 24.6 39.86 22.34 38.54 21.1C37.22 19.9 34.7 19.3 30.98 19.3C27.3 19.3 24.8 19.9 23.48 21.1C22.16 22.34 21.5 24.6 21.5 27.88ZM55.52 27.88C55.52 31.2 56.18 33.46 57.5 34.66C58.82 35.9 61.32 36.52 65 36.52C68.68 36.52 71.18 35.9 72.5 34.66C73.82 33.46 74.48 31.2 74.48 27.88C74.48 24.6 73.82 22.34 72.5 21.1C71.18 19.9 68.68 19.3 65 19.3C61.32 19.3 58.82 19.9 57.5 21.1C56.18 22.34 55.52 24.6 55.52 27.88Z" fill="black"/>
</mask>
<g mask="url(#mask0_2_103)">
<path d="M87.02 42.52L88.434 43.9342L88.456 43.9128L88.476 43.8907L87.02 42.52ZM75.02 54.52L76.3907 55.9764L76.4128 55.9556L76.4342 55.9342L75.02 54.52ZM58.22 54.52L56.7273 55.8511L56.7653 55.8938L56.8058 55.9342L58.22 54.52ZM49.82 45.1L51.3127 43.7689L51.0029 43.4214L50.5714 43.2465L49.82 45.1ZM47.6 44.2L48.3514 42.3465L47.4649 41.9871L46.6287 42.4517L47.6 44.2ZM45.98 45.1L45.0087 43.3517L44.7127 43.5162L44.4873 43.7689L45.98 45.1ZM37.58 54.52L38.9942 55.9342L39.0347 55.8938L39.0727 55.8511L37.58 54.52ZM36.74 55.24L35.6306 53.5759L35.5584 53.624L35.4906 53.6783L36.74 55.24ZM23.48 34.66L24.8494 33.2023L24.8374 33.1911L24.8253 33.1801L23.48 34.66ZM38.54 34.66L37.1947 33.1801L37.1826 33.1911L37.1706 33.2023L38.54 34.66ZM38.54 21.1L39.9093 19.6423L39.8974 19.6311L39.8853 19.6201L38.54 21.1ZM23.48 21.1L22.1347 19.6201L22.1226 19.6311L22.1107 19.6423L23.48 21.1ZM57.5 34.66L58.8694 33.2023L58.8574 33.1911L58.8453 33.1801L57.5 34.66ZM72.5 34.66L71.1547 33.1801L71.1426 33.1911L71.1307 33.2023L72.5 34.66ZM72.5 21.1L73.8694 19.6423L73.8574 19.6311L73.8453 19.6201L72.5 21.1ZM57.5 21.1L56.1547 19.6201L56.1426 19.6311L56.1307 19.6423L57.5 21.1ZM10 4C10 3.80829 10.0466 4.03185 9.7892 4.28921C9.5319 4.54657 9.3083 4.5 9.5 4.5V0.5C8.6917 0.5 7.7181 0.70343 6.9608 1.46079C6.2034 2.21815 6 3.19171 6 4H10ZM9.5 4.5H86.48V0.5H9.5V4.5ZM86.48 4.5C86.672 4.5 86.448 4.54657 86.191 4.28921C85.933 4.03185 85.98 3.80829 85.98 4H89.98C89.98 3.19171 89.777 2.21815 89.019 1.46079C88.262 0.70343 87.288 0.5 86.48 0.5V4.5ZM85.98 4V40.12H89.98V4H85.98ZM85.98 40.12C85.98 40.5221 85.86 40.8341 85.564 41.1493L88.476 43.8907C89.46 42.8459 89.98 41.5579 89.98 40.12H85.98ZM85.606 41.1058L73.6058 53.1058L76.4342 55.9342L88.434 43.9342L85.606 41.1058ZM73.6493 53.0636C73.3341 53.3603 73.0221 53.48 72.62 53.48V57.48C74.0579 57.48 75.3459 56.9597 76.3907 55.9764L73.6493 53.0636ZM72.62 53.48H60.02V57.48H72.62V53.48ZM60.02 53.48C59.9502 53.48 59.9371 53.4727 59.9651 53.4797C59.996 53.4874 60.0734 53.5119 60.1694 53.5759L57.9506 56.9041C58.6236 57.3527 59.3727 57.48 60.02 57.48V53.48ZM60.1694 53.5759C60.0825 53.5179 59.9072 53.3788 59.6342 53.1058L56.8058 55.9342C57.1728 56.3012 57.5575 56.6421 57.9506 56.9041L60.1694 53.5759ZM59.7127 53.1889L51.3127 43.7689L48.3273 46.4311L56.7273 55.8511L59.7127 53.1889ZM50.5714 43.2465L48.3514 42.3465L46.8486 46.0535L49.0686 46.9535L50.5714 43.2465ZM46.6287 42.4517L45.0087 43.3517L46.9513 46.8483L48.5713 45.9483L46.6287 42.4517ZM44.4873 43.7689L36.0873 53.1889L39.0727 55.8511L47.4727 46.4311L44.4873 43.7689ZM36.1658 53.1058C35.8928 53.3788 35.7175 53.5179 35.6306 53.5759L37.8494 56.9041C38.2425 56.6421 38.6272 56.3012 38.9942 55.9342L36.1658 53.1058ZM35.4906 53.6783C35.67 53.5347 35.8232 53.4902 35.8649 53.4797C35.9062 53.4694 35.8872 53.48 35.78 53.48V57.48C36.3791 57.48 37.258 57.3869 37.9894 56.8017L35.4906 53.6783ZM35.78 53.48H23.42V57.48H35.78V53.48ZM23.42 53.48C22.9547 53.48 22.6746 53.3462 22.4342 53.1058L19.6058 55.9342C20.6454 56.9738 21.9653 57.48 23.42 57.48V53.48ZM22.4342 53.1058L10.4342 41.1058L7.6058 43.9342L19.6058 55.9342L22.4342 53.1058ZM10.4342 41.1058C10.1104 40.7819 10 40.4834 10 40.12H6C6 41.5966 6.5696 42.8981 7.6058 43.9342L10.4342 41.1058ZM10 40.12V4H6V40.12H10ZM19.5 27.88C19.5 31.321 20.1556 34.3408 22.1347 36.1399L24.8253 33.1801C24.1644 32.5792 23.5 31.079 23.5 27.88H19.5ZM22.1106 36.1177C24.0334 37.924 27.2392 38.52 30.98 38.52V34.52C27.3608 34.52 25.5666 33.876 24.8494 33.2023L22.1106 36.1177ZM30.98 38.52C34.7537 38.52 37.984 37.9263 39.9094 36.1177L37.1706 33.2023C36.456 33.8737 34.6463 34.52 30.98 34.52V38.52ZM39.8853 36.1399C41.8644 34.3408 42.52 31.321 42.52 27.88H38.52C38.52 31.079 37.8556 32.5792 37.1947 33.1801L39.8853 36.1399ZM42.52 27.88C42.52 24.4595 41.8564 21.4713 39.9093 19.6423L37.1707 22.5577C37.8636 23.2087 38.52 24.7405 38.52 27.88H42.52ZM39.8853 19.6201C38.8876 18.7131 37.5731 18.1496 36.1232 17.8044C34.6615 17.4564 32.9345 17.3 30.98 17.3V21.3C32.7455 21.3 34.1385 21.4436 35.1968 21.6956C36.2669 21.9504 36.8724 22.2869 37.1947 22.5799L39.8853 19.6201ZM30.98 17.3C27.2483 17.3 24.0555 17.8739 22.1347 19.6201L24.8253 22.5799C25.5445 21.9261 27.3517 21.3 30.98 21.3V17.3ZM22.1107 19.6423C20.1636 21.4713 19.5 24.4595 19.5 27.88H23.5C23.5 24.7405 24.1564 23.2087 24.8494 22.5577L22.1107 19.6423ZM53.52 27.88C53.52 31.321 54.1756 34.3408 56.1547 36.1399L58.8453 33.1801C58.1844 32.5792 57.52 31.079 57.52 27.88H53.52ZM56.1307 36.1177C58.0534 37.924 61.2592 38.52 65 38.52V34.52C61.3808 34.52 59.5866 33.876 58.8694 33.2023L56.1307 36.1177ZM65 38.52C68.7408 38.52 71.9466 37.924 73.8694 36.1177L71.1307 33.2023C70.4134 33.876 68.6192 34.52 65 34.52V38.52ZM73.8453 36.1399C75.8244 34.3408 76.48 31.321 76.48 27.88H72.48C72.48 31.079 71.8156 32.5792 71.1547 33.1801L73.8453 36.1399ZM76.48 27.88C76.48 24.4595 75.8164 21.4713 73.8694 19.6423L71.1307 22.5577C71.8236 23.2087 72.48 24.7405 72.48 27.88H76.48ZM73.8453 19.6201C71.9245 17.8739 68.7317 17.3 65 17.3V21.3C68.6283 21.3 70.4355 21.9261 71.1547 22.5799L73.8453 19.6201ZM65 17.3C61.2683 17.3 58.0755 17.8739 56.1547 19.6201L58.8453 22.5799C59.5645 21.9261 61.3717 21.3 65 21.3V17.3ZM56.1307 19.6423C54.1836 21.4713 53.52 24.4595 53.52 27.88H57.52C57.52 24.7405 58.1764 23.2087 58.8694 22.5577L56.1307 19.6423Z" fill="black"/>
</g>
<path d="M2 4C2 3 2.5 2.5 3.5 2.5H80.48C81.48 2.5 81.98 3 81.98 4V40.12C81.98 41.04 81.66 41.84 81.02 42.52L69.02 54.52C68.34 55.16 67.54 55.48 66.62 55.48H54.02C53.62 55.48 53.3 55.4 53.06 55.24C52.82 55.08 52.54 54.84 52.22 54.52L43.82 45.1L41.6 44.2L39.98 45.1L31.58 54.52C31.26 54.84 30.98 55.08 30.74 55.24C30.54 55.4 30.22 55.48 29.78 55.48H17.42C16.46 55.48 15.66 55.16 15.02 54.52L3.02 42.52C2.34 41.84 2 41.04 2 40.12V4ZM15.5 27.88C15.5 31.2 16.16 33.46 17.48 34.66C18.8 35.9 21.3 36.52 24.98 36.52C28.7 36.52 31.22 35.9 32.54 34.66C33.86 33.46 34.52 31.2 34.52 27.88C34.52 24.6 33.86 22.34 32.54 21.1C31.22 19.9 28.7 19.3 24.98 19.3C21.3 19.3 18.8 19.9 17.48 21.1C16.16 22.34 15.5 24.6 15.5 27.88ZM49.52 27.88C49.52 31.2 50.18 33.46 51.5 34.66C52.82 35.9 55.32 36.52 59 36.52C62.68 36.52 65.18 35.9 66.5 34.66C67.82 33.46 68.48 31.2 68.48 27.88C68.48 24.6 67.82 22.34 66.5 21.1C65.18 19.9 62.68 19.3 59 19.3C55.32 19.3 52.82 19.9 51.5 21.1C50.18 22.34 49.52 24.6 49.52 27.88Z" fill="#007BFF"/>
<mask id="mask1_2_103" style="mask-type:luminance" maskUnits="userSpaceOnUse" x="0" y="0" width="84" height="58">
<path d="M84 0H0V58H84V0Z" fill="white"/>
<path d="M2 4C2 3 2.5 2.5 3.5 2.5H80.48C81.48 2.5 81.98 3 81.98 4V40.12C81.98 41.04 81.66 41.84 81.02 42.52L69.02 54.52C68.34 55.16 67.54 55.48 66.62 55.48H54.02C53.62 55.48 53.3 55.4 53.06 55.24C52.82 55.08 52.54 54.84 52.22 54.52L43.82 45.1L41.6 44.2L39.98 45.1L31.58 54.52C31.26 54.84 30.98 55.08 30.74 55.24C30.54 55.4 30.22 55.48 29.78 55.48H17.42C16.46 55.48 15.66 55.16 15.02 54.52L3.02 42.52C2.34 41.84 2 41.04 2 40.12V4ZM15.5 27.88C15.5 31.2 16.16 33.46 17.48 34.66C18.8 35.9 21.3 36.52 24.98 36.52C28.7 36.52 31.22 35.9 32.54 34.66C33.86 33.46 34.52 31.2 34.52 27.88C34.52 24.6 33.86 22.34 32.54 21.1C31.22 19.9 28.7 19.3 24.98 19.3C21.3 19.3 18.8 19.9 17.48 21.1C16.16 22.34 15.5 24.6 15.5 27.88ZM49.52 27.88C49.52 31.2 50.18 33.46 51.5 34.66C52.82 35.9 55.32 36.52 59 36.52C62.68 36.52 65.18 35.9 66.5 34.66C67.82 33.46 68.48 31.2 68.48 27.88C68.48 24.6 67.82 22.34 66.5 21.1C65.18 19.9 62.68 19.3 59 19.3C55.32 19.3 52.82 19.9 51.5 21.1C50.18 22.34 49.52 24.6 49.52 27.88Z" fill="black"/>
</mask>
<g mask="url(#mask1_2_103)">
<path d="M81.02 42.52L82.434 43.9342L82.456 43.9128L82.476 43.8907L81.02 42.52ZM69.02 54.52L70.3907 55.9764L70.4128 55.9556L70.4342 55.9342L69.02 54.52ZM52.22 54.52L50.7273 55.8511L50.7653 55.8938L50.8058 55.9342L52.22 54.52ZM43.82 45.1L45.3127 43.7689L45.0029 43.4214L44.5714 43.2465L43.82 45.1ZM41.6 44.2L42.3514 42.3465L41.4649 41.9871L40.6287 42.4517L41.6 44.2ZM39.98 45.1L39.0087 43.3517L38.7127 43.5162L38.4873 43.7689L39.98 45.1ZM31.58 54.52L32.9942 55.9342L33.0347 55.8938L33.0727 55.8511L31.58 54.52ZM30.74 55.24L29.6306 53.5759L29.5584 53.624L29.4906 53.6783L30.74 55.24ZM17.48 34.66L18.8494 33.2023L18.8374 33.1911L18.8253 33.1801L17.48 34.66ZM32.54 34.66L31.1947 33.1801L31.1826 33.1911L31.1706 33.2023L32.54 34.66ZM32.54 21.1L33.9093 19.6423L33.8974 19.6311L33.8853 19.6201L32.54 21.1ZM17.48 21.1L16.1347 19.6201L16.1226 19.6311L16.1107 19.6423L17.48 21.1ZM51.5 34.66L52.8694 33.2023L52.8574 33.1911L52.8453 33.1801L51.5 34.66ZM66.5 34.66L65.1547 33.1801L65.1426 33.1911L65.1307 33.2023L66.5 34.66ZM66.5 21.1L67.8694 19.6423L67.8574 19.6311L67.8453 19.6201L66.5 21.1ZM51.5 21.1L50.1547 19.6201L50.1426 19.6311L50.1307 19.6423L51.5 21.1ZM4 4C4 3.80829 4.0466 4.03185 3.7892 4.28921C3.5319 4.54657 3.3083 4.5 3.5 4.5V0.5C2.6917 0.5 1.7181 0.70343 0.9608 1.46079C0.2034 2.21815 0 3.19171 0 4H4ZM3.5 4.5H80.48V0.5H3.5V4.5ZM80.48 4.5C80.672 4.5 80.448 4.54657 80.191 4.28921C79.933 4.03185 79.98 3.80829 79.98 4H83.98C83.98 3.19171 83.777 2.21815 83.019 1.46079C82.262 0.70343 81.288 0.5 80.48 0.5V4.5ZM79.98 4V40.12H83.98V4H79.98ZM79.98 40.12C79.98 40.5221 79.86 40.8341 79.564 41.1493L82.476 43.8907C83.46 42.8459 83.98 41.5579 83.98 40.12H79.98ZM79.606 41.1058L67.6058 53.1058L70.4342 55.9342L82.434 43.9342L79.606 41.1058ZM67.6493 53.0636C67.3341 53.3603 67.0221 53.48 66.62 53.48V57.48C68.0579 57.48 69.3459 56.9597 70.3907 55.9764L67.6493 53.0636ZM66.62 53.48H54.02V57.48H66.62V53.48ZM54.02 53.48C53.9502 53.48 53.9371 53.4727 53.9651 53.4797C53.996 53.4874 54.0734 53.5119 54.1694 53.5759L51.9506 56.9041C52.6236 57.3527 53.3727 57.48 54.02 57.48V53.48ZM54.1694 53.5759C54.0825 53.5179 53.9072 53.3788 53.6342 53.1058L50.8058 55.9342C51.1728 56.3012 51.5575 56.6421 51.9506 56.9041L54.1694 53.5759ZM53.7127 53.1889L45.3127 43.7689L42.3273 46.4311L50.7273 55.8511L53.7127 53.1889ZM44.5714 43.2465L42.3514 42.3465L40.8486 46.0535L43.0686 46.9535L44.5714 43.2465ZM40.6287 42.4517L39.0087 43.3517L40.9513 46.8483L42.5713 45.9483L40.6287 42.4517ZM38.4873 43.7689L30.0873 53.1889L33.0727 55.8511L41.4727 46.4311L38.4873 43.7689ZM30.1658 53.1058C29.8928 53.3788 29.7175 53.5179 29.6306 53.5759L31.8494 56.9041C32.2425 56.6421 32.6272 56.3012 32.9942 55.9342L30.1658 53.1058ZM29.4906 53.6783C29.67 53.5347 29.8232 53.4902 29.8649 53.4797C29.9062 53.4694 29.8872 53.48 29.78 53.48V57.48C30.3791 57.48 31.258 57.3869 31.9894 56.8017L29.4906 53.6783ZM29.78 53.48H17.42V57.48H29.78V53.48ZM17.42 53.48C16.9547 53.48 16.6746 53.3462 16.4342 53.1058L13.6058 55.9342C14.6454 56.9738 15.9653 57.48 17.42 57.48V53.48ZM16.4342 53.1058L4.4342 41.1058L1.6058 43.9342L13.6058 55.9342L16.4342 53.1058ZM4.4342 41.1058C4.1104 40.7819 4 40.4834 4 40.12H0C0 41.5966 0.569601 42.8981 1.6058 43.9342L4.4342 41.1058ZM4 40.12V4H0V40.12H4ZM13.5 27.88C13.5 31.321 14.1556 34.3408 16.1347 36.1399L18.8253 33.1801C18.1644 32.5792 17.5 31.079 17.5 27.88H13.5ZM16.1106 36.1177C18.0334 37.924 21.2392 38.52 24.98 38.52V34.52C21.3608 34.52 19.5666 33.876 18.8494 33.2023L16.1106 36.1177ZM24.98 38.52C28.7537 38.52 31.984 37.9263 33.9094 36.1177L31.1706 33.2023C30.456 33.8737 28.6463 34.52 24.98 34.52V38.52ZM33.8853 36.1399C35.8644 34.3408 36.52 31.321 36.52 27.88H32.52C32.52 31.079 31.8556 32.5792 31.1947 33.1801L33.8853 36.1399ZM36.52 27.88C36.52 24.4595 35.8564 21.4713 33.9093 19.6423L31.1707 22.5577C31.8636 23.2087 32.52 24.7405 32.52 27.88H36.52ZM33.8853 19.6201C32.8876 18.7131 31.5731 18.1496 30.1232 17.8044C28.6615 17.4564 26.9345 17.3 24.98 17.3V21.3C26.7455 21.3 28.1385 21.4436 29.1968 21.6956C30.2669 21.9504 30.8724 22.2869 31.1947 22.5799L33.8853 19.6201ZM24.98 17.3C21.2483 17.3 18.0555 17.8739 16.1347 19.6201L18.8253 22.5799C19.5445 21.9261 21.3517 21.3 24.98 21.3V17.3ZM16.1107 19.6423C14.1636 21.4713 13.5 24.4595 13.5 27.88H17.5C17.5 24.7405 18.1564 23.2087 18.8494 22.5577L16.1107 19.6423ZM47.52 27.88C47.52 31.321 48.1756 34.3408 50.1547 36.1399L52.8453 33.1801C52.1844 32.5792 51.52 31.079 51.52 27.88H47.52ZM50.1307 36.1177C52.0534 37.924 55.2592 38.52 59 38.52V34.52C55.3808 34.52 53.5866 33.876 52.8694 33.2023L50.1307 36.1177ZM59 38.52C62.7408 38.52 65.9466 37.924 67.8694 36.1177L65.1307 33.2023C64.4134 33.876 62.6192 34.52 59 34.52V38.52ZM67.8453 36.1399C69.8244 34.3408 70.48 31.321 70.48 27.88H66.48C66.48 31.079 65.8156 32.5792 65.1547 33.1801L67.8453 36.1399ZM70.48 27.88C70.48 24.4595 69.8164 21.4713 67.8694 19.6423L65.1307 22.5577C65.8236 23.2087 66.48 24.7405 66.48 27.88H70.48ZM67.8453 19.6201C65.9245 17.8739 62.7317 17.3 59 17.3V21.3C62.6283 21.3 64.4355 21.9261 65.1547 22.5799L67.8453 19.6201ZM59 17.3C55.2683 17.3 52.0755 17.8739 50.1547 19.6201L52.8453 22.5799C53.5645 21.9261 55.3717 21.3 59 21.3V17.3ZM50.1307 19.6423C48.1836 21.4713 47.52 24.4595 47.52 27.88H51.52C51.52 24.7405 52.1764 23.2087 52.8694 22.5577L50.1307 19.6423Z" fill="black"/>
</g>
</svg>
