<svg width="134" height="89" viewBox="0 0 134 89" fill="none" xmlns="http://www.w3.org/2000/svg">
<path d="M28.88 87C27.84 87 27.04 86.74 26.48 86.22L19.82 79.5L8.48002 68.22C8.04002 67.78 7.76002 67.44 7.64002 67.2C7.56002 66.92 7.52002 66.46 7.52002 65.82V28.2C7.52002 27.52 7.56002 27.06 7.64002 26.82C7.76002 26.58 8.04002 26.24 8.48002 25.8L17.48 16.68L26.48 7.80001C26.84 7.44 27.2 7.22 27.56 7.14C27.92 7.06 28.36 7.02 28.88 7.02H45.68C46.68 7.02 47.18 7.52 47.18 8.52V25.08C47.18 25.44 47.14 25.78 47.06 26.1C47.02 26.38 46.84 26.68 46.52 27L38.6 34.8L32.3 41.22V53.82L39.38 61.02L46.52 67.98C46.84 68.26 47.02 68.56 47.06 68.88C47.14 69.2 47.18 69.54 47.18 69.9V85.5C47.18 86.5 46.68 87 45.68 87H28.88ZM52.9484 86.52C51.9484 86.52 51.4484 86.02 51.4484 85.02V66.78C51.4484 65.78 51.9484 65.28 52.9484 65.28H71.1284C72.1284 65.28 72.6284 65.78 72.6284 66.78V85.02C72.6284 86.02 72.1284 86.52 71.1284 86.52H52.9484ZM78.395 87C77.395 87 76.895 86.5 76.895 85.5V8.52C76.895 7.52 77.395 7.02 78.395 7.02H116.495C117.415 7.02 118.215 7.34001 118.895 7.98001L130.895 19.98C131.535 20.66 131.855 21.46 131.855 22.38V34.98C131.855 35.38 131.775 35.7 131.615 35.94C131.455 36.18 131.215 36.46 130.895 36.78L121.475 45.18L120.455 46.8L121.475 49.02L130.895 57.42C131.215 57.74 131.455 58.02 131.615 58.26C131.775 58.46 131.855 58.78 131.855 59.22V71.58C131.855 72.54 131.535 73.34 130.895 73.98L118.895 85.98C118.215 86.66 117.415 87 116.495 87H78.395ZM104.375 67.08C105.975 67.08 107.295 66.58 108.335 65.58C109.375 64.54 109.895 63.22 109.895 61.62C109.895 59.98 109.375 58.66 108.335 57.66C107.295 56.62 105.975 56.1 104.375 56.1C102.775 56.1 101.455 56.62 100.415 57.66C99.375 58.66 98.855 59.98 98.855 61.62C98.855 63.22 99.375 64.54 100.415 65.58C101.455 66.58 102.775 67.08 104.375 67.08ZM104.075 37.62C105.595 37.62 106.835 37.12 107.795 36.12C108.795 35.12 109.295 33.88 109.295 32.4C109.295 30.88 108.795 29.64 107.795 28.68C106.835 27.68 105.595 27.18 104.075 27.18C102.595 27.18 101.355 27.68 100.355 28.68C99.355 29.64 98.855 30.88 98.855 32.4C98.855 33.88 99.355 35.12 100.355 36.12C101.355 37.12 102.595 37.62 104.075 37.62Z" fill="black"/>
<mask id="mask0_1_136" style="mask-type:luminance" maskUnits="userSpaceOnUse" x="5" y="5" width="129" height="84">
<path d="M134 5H5V89H134V5Z" fill="white"/>
<path d="M28.88 87C27.84 87 27.04 86.74 26.48 86.22L19.82 79.5L8.47999 68.22C8.03999 67.78 7.75999 67.44 7.63999 67.2C7.55999 66.92 7.51999 66.46 7.51999 65.82V28.2C7.51999 27.52 7.55999 27.06 7.63999 26.82C7.75999 26.58 8.03999 26.24 8.47999 25.8L17.48 16.68L26.48 7.80001C26.84 7.44 27.2 7.22 27.56 7.14C27.92 7.06 28.36 7.02 28.88 7.02H45.68C46.68 7.02 47.18 7.52 47.18 8.52V25.08C47.18 25.44 47.14 25.78 47.06 26.1C47.02 26.38 46.84 26.68 46.52 27L38.6 34.8L32.3 41.22V53.82L39.38 61.02L46.52 67.98C46.84 68.26 47.02 68.56 47.06 68.88C47.14 69.2 47.18 69.54 47.18 69.9V85.5C47.18 86.5 46.68 87 45.68 87H28.88ZM52.9484 86.52C51.9484 86.52 51.4484 86.02 51.4484 85.02V66.78C51.4484 65.78 51.9484 65.28 52.9484 65.28H71.1284C72.1284 65.28 72.6284 65.78 72.6284 66.78V85.02C72.6284 86.02 72.1284 86.52 71.1284 86.52H52.9484ZM78.395 87C77.395 87 76.895 86.5 76.895 85.5V8.52C76.895 7.52 77.395 7.02 78.395 7.02H116.495C117.415 7.02 118.215 7.34001 118.895 7.98001L130.895 19.98C131.535 20.66 131.855 21.46 131.855 22.38V34.98C131.855 35.38 131.775 35.7 131.615 35.94C131.455 36.18 131.215 36.46 130.895 36.78L121.475 45.18L120.455 46.8L121.475 49.02L130.895 57.42C131.215 57.74 131.455 58.02 131.615 58.26C131.775 58.46 131.855 58.78 131.855 59.22V71.58C131.855 72.54 131.535 73.34 130.895 73.98L118.895 85.98C118.215 86.66 117.415 87 116.495 87H78.395ZM104.375 67.08C105.975 67.08 107.295 66.58 108.335 65.58C109.375 64.54 109.895 63.22 109.895 61.62C109.895 59.98 109.375 58.66 108.335 57.66C107.295 56.62 105.975 56.1 104.375 56.1C102.775 56.1 101.455 56.62 100.415 57.66C99.375 58.66 98.855 59.98 98.855 61.62C98.855 63.22 99.375 64.54 100.415 65.58C101.455 66.58 102.775 67.08 104.375 67.08ZM104.075 37.62C105.595 37.62 106.835 37.12 107.795 36.12C108.795 35.12 109.295 33.88 109.295 32.4C109.295 30.88 108.795 29.64 107.795 28.68C106.835 27.68 105.595 27.18 104.075 27.18C102.595 27.18 101.355 27.68 100.355 28.68C99.355 29.64 98.855 30.88 98.855 32.4C98.855 33.88 99.355 35.12 100.355 36.12C101.355 37.12 102.595 37.62 104.075 37.62Z" fill="black"/>
</mask>
<g mask="url(#mask0_1_136)">
<path d="M26.48 86.22L25.0595 87.6279L25.0887 87.6573L25.1191 87.6856L26.48 86.22ZM19.82 79.5L21.2405 78.0921L21.2355 78.0871L21.2305 78.082L19.82 79.5ZM8.47999 68.22L7.06577 69.6342L7.06953 69.638L8.47999 68.22ZM7.63999 67.2L5.71694 67.7494L5.76801 67.9282L5.85113 68.0944L7.63999 67.2ZM7.63999 26.82L5.85113 25.9256L5.78757 26.0527L5.74262 26.1875L7.63999 26.82ZM8.47999 25.8L9.89424 27.2142L9.90354 27.2048L8.47999 25.8ZM17.48 16.68L16.0753 15.2563L16.0658 15.2657L16.0564 15.2752L17.48 16.68ZM26.48 7.80001L27.8847 9.22371L27.8942 9.21421L26.48 7.80001ZM47.06 26.1L45.1197 25.6149L45.0947 25.715L45.0801 25.8172L47.06 26.1ZM46.52 27L47.9234 28.425L47.9288 28.4196L47.9342 28.4142L46.52 27ZM38.6 34.8L37.1966 33.375L37.1845 33.387L37.1725 33.3992L38.6 34.8ZM32.3 41.22L30.8725 39.8192L30.3 40.4026V41.22H32.3ZM32.3 53.82H30.3V54.6386L30.874 55.2223L32.3 53.82ZM39.38 61.02L37.954 62.4223L37.9688 62.4374L37.984 62.4522L39.38 61.02ZM46.52 67.98L45.124 69.4122L45.1625 69.4497L45.203 69.4852L46.52 67.98ZM47.06 68.88L45.0754 69.1281L45.0904 69.2479L45.1197 69.3651L47.06 68.88ZM28.88 85C28.16 85 27.9148 84.823 27.8409 84.7544L25.1191 87.6856C26.1652 88.657 27.52 89 28.88 89V85ZM27.9005 84.8121L21.2405 78.0921L18.3995 80.9079L25.0595 87.6279L27.9005 84.8121ZM21.2305 78.082L9.89045 66.802L7.06953 69.638L18.4095 80.918L21.2305 78.082ZM9.8942 66.8058C9.70277 66.6144 9.57014 66.4684 9.48385 66.3636C9.38689 66.2459 9.39265 66.2332 9.42885 66.3056L5.85113 68.0944C6.12959 68.6513 6.62111 69.1896 7.06577 69.6342L9.8942 66.8058ZM9.56304 66.6506C9.57235 66.6831 9.55702 66.6391 9.54247 66.4717C9.52897 66.3165 9.51999 66.1024 9.51999 65.82H5.51999C5.51999 66.4784 5.55439 67.1805 5.71694 67.7494L9.56304 66.6506ZM9.51999 65.82V28.2H5.51999V65.82H9.51999ZM9.51999 28.2C9.51999 27.8936 9.52922 27.6707 9.54247 27.5183C9.54901 27.4431 9.55538 27.3988 9.55873 27.3792C9.56287 27.3551 9.55932 27.3866 9.53736 27.4525L5.74262 26.1875C5.54583 26.7779 5.51999 27.5509 5.51999 28.2H9.51999ZM9.42885 27.7144C9.39266 27.7868 9.38689 27.7741 9.48385 27.6564C9.57014 27.5516 9.7028 27.4056 9.89424 27.2142L7.06577 24.3858C6.62111 24.8304 6.12959 25.3687 5.85113 25.9256L9.42885 27.7144ZM9.90354 27.2048L18.9035 18.0848L16.0564 15.2752L7.05644 24.3952L9.90354 27.2048ZM18.8847 18.1037L27.8847 9.22371L25.0753 6.37633L16.0753 15.2563L18.8847 18.1037ZM27.8942 9.21421C27.9846 9.12384 28.0421 9.08425 28.0629 9.07156C28.0815 9.06021 28.0575 9.07822 27.9939 9.09237L27.1261 5.18762C26.2788 5.37591 25.5961 5.85544 25.0658 6.3858L27.8942 9.21421ZM27.9939 9.09237C28.1667 9.05397 28.4516 9.02 28.88 9.02V5.02C28.2684 5.02 27.6733 5.06603 27.1261 5.18762L27.9939 9.09237ZM28.88 9.02H45.68V5.02H28.88V9.02ZM45.68 9.02C45.8717 9.02 45.6481 9.06657 45.3908 8.80921C45.1334 8.55185 45.18 8.32829 45.18 8.52H49.18C49.18 7.71171 48.9766 6.73815 48.2192 5.98079C47.4619 5.22343 46.4883 5.02 45.68 5.02V9.02ZM45.18 8.52V25.08H49.18V8.52H45.18ZM45.18 25.08C45.18 25.2913 45.1566 25.4673 45.1197 25.6149L49.0003 26.5851C49.1234 26.0927 49.18 25.5888 49.18 25.08H45.18ZM45.0801 25.8172C45.1056 25.6387 45.1644 25.5321 45.18 25.506C45.1945 25.4818 45.182 25.5096 45.1058 25.5858L47.9342 28.4142C48.3902 27.9582 48.9117 27.2801 49.0399 26.3828L45.0801 25.8172ZM45.1166 25.575L37.1966 33.375L40.0034 36.225L47.9234 28.425L45.1166 25.575ZM37.1725 33.3992L30.8725 39.8192L33.7275 42.6208L40.0275 36.2008L37.1725 33.3992ZM30.3 41.22V53.82H34.3V41.22H30.3ZM30.874 55.2223L37.954 62.4223L40.806 59.6177L33.726 52.4177L30.874 55.2223ZM37.984 62.4522L45.124 69.4122L47.916 66.5479L40.776 59.5879L37.984 62.4522ZM45.203 69.4852C45.2389 69.5166 45.2173 69.5061 45.18 69.444C45.1391 69.3758 45.0928 69.2671 45.0754 69.1281L49.0446 68.6319C48.9265 67.6875 48.4063 66.973 47.837 66.4748L45.203 69.4852ZM45.1197 69.3651C45.1566 69.5127 45.18 69.6888 45.18 69.9H49.18C49.18 69.3913 49.1234 68.8873 49.0003 68.3949L45.1197 69.3651ZM45.18 69.9V85.5H49.18V69.9H45.18ZM45.18 85.5C45.18 85.6917 45.1334 85.4682 45.3908 85.2108C45.6481 84.9534 45.8717 85 45.68 85V89C46.4883 89 47.4619 88.7966 48.2192 88.0392C48.9766 87.2819 49.18 86.3083 49.18 85.5H45.18ZM45.68 85H28.88V89H45.68V85ZM52.9484 84.52C52.7567 84.52 52.9803 84.4734 53.2377 84.7308C53.495 84.9881 53.4484 85.2117 53.4484 85.02H49.4484C49.4484 85.8283 49.6519 86.8019 50.4092 87.5592C51.1666 88.3166 52.1401 88.52 52.9484 88.52V84.52ZM53.4484 85.02V66.78H49.4484V85.02H53.4484ZM53.4484 66.78C53.4484 66.5883 53.495 66.8119 53.2377 67.0692C52.9803 67.3266 52.7567 67.28 52.9484 67.28V63.28C52.1401 63.28 51.1666 63.4834 50.4092 64.2408C49.6519 64.9981 49.4484 65.9717 49.4484 66.78H53.4484ZM52.9484 67.28H71.1284V63.28H52.9484V67.28ZM71.1284 67.28C71.3201 67.28 71.0966 67.3266 70.8392 67.0692C70.5819 66.8119 70.6284 66.5883 70.6284 66.78H74.6284C74.6284 65.9717 74.425 64.9981 73.6677 64.2408C72.9103 63.4834 71.9367 63.28 71.1284 63.28V67.28ZM70.6284 66.78V85.02H74.6284V66.78H70.6284ZM70.6284 85.02C70.6284 85.2117 70.5819 84.9881 70.8392 84.7308C71.0966 84.4734 71.3201 84.52 71.1284 84.52V88.52C71.9367 88.52 72.9103 88.3166 73.6677 87.5592C74.425 86.8019 74.6284 85.8283 74.6284 85.02H70.6284ZM71.1284 84.52H52.9484V88.52H71.1284V84.52ZM118.895 7.98001L120.309 6.56579L120.288 6.54437L120.266 6.52361L118.895 7.98001ZM130.895 19.98L132.351 18.6093L132.331 18.5872L132.309 18.5658L130.895 19.98ZM130.895 36.78L132.226 38.2727L132.269 38.2347L132.309 38.1942L130.895 36.78ZM121.475 45.18L120.144 43.6873L119.933 43.8753L119.783 44.1144L121.475 45.18ZM120.455 46.8L118.763 45.7344L118.185 46.6509L118.638 47.635L120.455 46.8ZM121.475 49.02L119.658 49.855L119.832 50.2347L120.144 50.5127L121.475 49.02ZM130.895 57.42L132.309 56.0058L132.269 55.9653L132.226 55.9273L130.895 57.42ZM131.615 58.26L129.951 59.3694L129.999 59.4416L130.053 59.5094L131.615 58.26ZM108.335 65.58L109.721 67.0217L109.735 67.0081L109.749 66.9942L108.335 65.58ZM108.335 57.66L106.921 59.0742L106.935 59.0881L106.949 59.1017L108.335 57.66ZM100.415 57.66L101.801 59.1017L101.815 59.0881L101.829 59.0742L100.415 57.66ZM100.415 65.58L99.0008 66.9942L99.0147 67.0081L99.0288 67.0217L100.415 65.58ZM107.795 36.12L106.381 34.7058L106.366 34.7202L106.352 34.7349L107.795 36.12ZM107.795 28.68L106.352 30.0651L106.38 30.0945L106.41 30.1228L107.795 28.68ZM100.355 28.68L101.74 30.1228L101.755 30.1086L101.769 30.0942L100.355 28.68ZM78.395 85C78.2033 85 78.4269 84.9534 78.6842 85.2108C78.9416 85.4681 78.895 85.6917 78.895 85.5H74.895C74.895 86.3083 75.0984 87.2819 75.8558 88.0392C76.6131 88.7966 77.5867 89 78.395 89V85ZM78.895 85.5V8.52H74.895V85.5H78.895ZM78.895 8.52C78.895 8.32829 78.9416 8.55185 78.6842 8.80921C78.4269 9.06657 78.2033 9.02 78.395 9.02V5.02C77.5867 5.02 76.6131 5.22343 75.8558 5.98079C75.0984 6.73815 74.895 7.71171 74.895 8.52H78.895ZM78.395 9.02H116.495V5.02H78.395V9.02ZM116.495 9.02C116.897 9.02 117.209 9.13974 117.524 9.4364L120.266 6.52361C119.221 5.54026 117.933 5.02 116.495 5.02V9.02ZM117.481 9.39422L129.481 21.3942L132.309 18.5658L120.309 6.56579L117.481 9.39422ZM129.439 21.3507C129.735 21.6659 129.855 21.9779 129.855 22.38H133.855C133.855 20.9421 133.335 19.6541 132.351 18.6093L129.439 21.3507ZM129.855 22.38V34.98H133.855V22.38H129.855ZM129.855 34.98C129.855 35.0498 129.848 35.0629 129.855 35.0349C129.862 35.004 129.887 34.9266 129.951 34.8306L133.279 37.0494C133.728 36.3765 133.855 35.6273 133.855 34.98H129.855ZM129.951 34.8306C129.893 34.9175 129.754 35.0928 129.481 35.3658L132.309 38.1942C132.676 37.8272 133.017 37.4425 133.279 37.0494L129.951 34.8306ZM129.564 35.2873L120.144 43.6873L122.806 46.6727L132.226 38.2727L129.564 35.2873ZM119.783 44.1144L118.763 45.7344L122.147 47.8656L123.167 46.2456L119.783 44.1144ZM118.638 47.635L119.658 49.855L123.292 48.185L122.272 45.965L118.638 47.635ZM120.144 50.5127L129.564 58.9127L132.226 55.9273L122.806 47.5273L120.144 50.5127ZM129.481 58.8342C129.754 59.1072 129.893 59.2825 129.951 59.3694L133.279 57.1506C133.017 56.7575 132.676 56.3728 132.309 56.0058L129.481 58.8342ZM130.053 59.5094C129.91 59.33 129.865 59.1768 129.855 59.1351C129.844 59.0938 129.855 59.1128 129.855 59.22H133.855C133.855 58.6209 133.762 57.742 133.177 57.0106L130.053 59.5094ZM129.855 59.22V71.58H133.855V59.22H129.855ZM129.855 71.58C129.855 72.0453 129.721 72.3254 129.481 72.5658L132.309 75.3942C133.349 74.3546 133.855 73.0347 133.855 71.58H129.855ZM129.481 72.5658L117.481 84.5658L120.309 87.3942L132.309 75.3942L129.481 72.5658ZM117.481 84.5658C117.157 84.8896 116.858 85 116.495 85V89C117.972 89 119.273 88.4304 120.309 87.3942L117.481 84.5658ZM116.495 85H78.395V89H116.495V85ZM104.375 69.08C106.43 69.08 108.267 68.4203 109.721 67.0217L106.949 64.1383C106.323 64.7397 105.519 65.08 104.375 65.08V69.08ZM109.749 66.9942C111.199 65.5443 111.895 63.6991 111.895 61.62H107.895C107.895 62.7409 107.551 63.5357 106.921 64.1658L109.749 66.9942ZM111.895 61.62C111.895 59.5174 111.208 57.6484 109.721 56.2183L106.949 59.1017C107.542 59.6716 107.895 60.4426 107.895 61.62H111.895ZM109.749 56.2458C108.299 54.7959 106.454 54.1 104.375 54.1V58.1C105.496 58.1 106.291 58.4441 106.921 59.0742L109.749 56.2458ZM104.375 54.1C102.296 54.1 100.451 54.7959 99.0008 56.2458L101.829 59.0742C102.459 58.4441 103.254 58.1 104.375 58.1V54.1ZM99.0288 56.2183C97.5416 57.6484 96.855 59.5174 96.855 61.62H100.855C100.855 60.4426 101.208 59.6716 101.801 59.1017L99.0288 56.2183ZM96.855 61.62C96.855 63.6991 97.5509 65.5443 99.0008 66.9942L101.829 64.1658C101.199 63.5357 100.855 62.7409 100.855 61.62H96.855ZM99.0288 67.0217C100.483 68.4203 102.319 69.08 104.375 69.08V65.08C103.23 65.08 102.427 64.7397 101.801 64.1383L99.0288 67.0217ZM104.075 39.62C106.081 39.62 107.862 38.938 109.238 37.5051L106.352 34.7349C105.808 35.302 105.109 35.62 104.075 35.62V39.62ZM109.209 37.5342C110.603 36.1401 111.295 34.383 111.295 32.4H107.295C107.295 33.3771 106.987 34.0999 106.381 34.7058L109.209 37.5342ZM111.295 32.4C111.295 30.3936 110.613 28.6128 109.18 27.2372L106.41 30.1228C106.977 30.6672 107.295 31.3664 107.295 32.4H111.295ZM109.238 27.2949C107.862 25.862 106.081 25.18 104.075 25.18V29.18C105.109 29.18 105.808 29.498 106.352 30.0651L109.238 27.2949ZM104.075 25.18C102.092 25.18 100.335 25.8717 98.9408 27.2658L101.769 30.0942C102.375 29.4883 103.098 29.18 104.075 29.18V25.18ZM98.9699 27.2372C97.537 28.6128 96.855 30.3936 96.855 32.4H100.855C100.855 31.3664 101.173 30.6672 101.74 30.1228L98.9699 27.2372ZM96.855 32.4C96.855 34.383 97.5467 36.1401 98.9408 37.5342L101.769 34.7058C101.163 34.0999 100.855 33.3771 100.855 32.4H96.855ZM98.9408 37.5342C100.335 38.9283 102.092 39.62 104.075 39.62V35.62C103.098 35.62 102.375 35.3117 101.769 34.7058L98.9408 37.5342Z" fill="black"/>
</g>
<path d="M23.88 82C22.84 82 22.04 81.74 21.48 81.22L14.82 74.5L3.47999 63.22C3.03999 62.78 2.75999 62.44 2.63999 62.2C2.55999 61.92 2.51999 61.46 2.51999 60.82V23.2C2.51999 22.52 2.55999 22.06 2.63999 21.82C2.75999 21.58 3.03999 21.24 3.47999 20.8L12.48 11.68L21.48 2.8C21.84 2.44 22.2 2.22 22.56 2.14C22.92 2.06 23.36 2.02 23.88 2.02H40.68C41.68 2.02 42.18 2.52 42.18 3.52V20.08C42.18 20.44 42.14 20.78 42.06 21.1C42.02 21.38 41.84 21.68 41.52 22L33.6 29.8L27.3 36.22V48.82L34.38 56.02L41.52 62.98C41.84 63.26 42.02 63.56 42.06 63.88C42.14 64.2 42.18 64.54 42.18 64.9V80.5C42.18 81.5 41.68 82 40.68 82H23.88ZM47.9484 81.52C46.9484 81.52 46.4484 81.02 46.4484 80.02V61.78C46.4484 60.78 46.9484 60.28 47.9484 60.28H66.1284C67.1284 60.28 67.6284 60.78 67.6284 61.78V80.02C67.6284 81.02 67.1284 81.52 66.1284 81.52H47.9484ZM73.395 82C72.395 82 71.895 81.5 71.895 80.5V3.52C71.895 2.52 72.395 2.02 73.395 2.02H111.495C112.415 2.02 113.215 2.34 113.895 2.98L125.895 14.98C126.535 15.66 126.855 16.46 126.855 17.38V29.98C126.855 30.38 126.775 30.7 126.615 30.94C126.455 31.18 126.215 31.46 125.895 31.78L116.475 40.18L115.455 41.8L116.475 44.02L125.895 52.42C126.215 52.74 126.455 53.02 126.615 53.26C126.775 53.46 126.855 53.78 126.855 54.22V66.58C126.855 67.54 126.535 68.34 125.895 68.98L113.895 80.98C113.215 81.66 112.415 82 111.495 82H73.395ZM99.375 62.08C100.975 62.08 102.295 61.58 103.335 60.58C104.375 59.54 104.895 58.22 104.895 56.62C104.895 54.98 104.375 53.66 103.335 52.66C102.295 51.62 100.975 51.1 99.375 51.1C97.775 51.1 96.455 51.62 95.415 52.66C94.375 53.66 93.855 54.98 93.855 56.62C93.855 58.22 94.375 59.54 95.415 60.58C96.455 61.58 97.775 62.08 99.375 62.08ZM99.075 32.62C100.595 32.62 101.835 32.12 102.795 31.12C103.795 30.12 104.295 28.88 104.295 27.4C104.295 25.88 103.795 24.64 102.795 23.68C101.835 22.68 100.595 22.18 99.075 22.18C97.595 22.18 96.355 22.68 95.355 23.68C94.355 24.64 93.855 25.88 93.855 27.4C93.855 28.88 94.355 30.12 95.355 31.12C96.355 32.12 97.595 32.62 99.075 32.62Z" fill="#007BFF"/>
<mask id="mask1_1_136" style="mask-type:luminance" maskUnits="userSpaceOnUse" x="0" y="0" width="129" height="84">
<path d="M129 0H0V84H129V0Z" fill="white"/>
<path d="M23.88 82C22.84 82 22.04 81.74 21.48 81.22L14.82 74.5L3.47999 63.22C3.03999 62.78 2.75999 62.44 2.63999 62.2C2.55999 61.92 2.51999 61.46 2.51999 60.82V23.2C2.51999 22.52 2.55999 22.06 2.63999 21.82C2.75999 21.58 3.03999 21.24 3.47999 20.8L12.48 11.68L21.48 2.8C21.84 2.44 22.2 2.22 22.56 2.14C22.92 2.06 23.36 2.02 23.88 2.02H40.68C41.68 2.02 42.18 2.52 42.18 3.52V20.08C42.18 20.44 42.14 20.78 42.06 21.1C42.02 21.38 41.84 21.68 41.52 22L33.6 29.8L27.3 36.22V48.82L34.38 56.02L41.52 62.98C41.84 63.26 42.02 63.56 42.06 63.88C42.14 64.2 42.18 64.54 42.18 64.9V80.5C42.18 81.5 41.68 82 40.68 82H23.88ZM47.9484 81.52C46.9484 81.52 46.4484 81.02 46.4484 80.02V61.78C46.4484 60.78 46.9484 60.28 47.9484 60.28H66.1284C67.1284 60.28 67.6284 60.78 67.6284 61.78V80.02C67.6284 81.02 67.1284 81.52 66.1284 81.52H47.9484ZM73.395 82C72.395 82 71.895 81.5 71.895 80.5V3.52C71.895 2.52 72.395 2.02 73.395 2.02H111.495C112.415 2.02 113.215 2.34 113.895 2.98L125.895 14.98C126.535 15.66 126.855 16.46 126.855 17.38V29.98C126.855 30.38 126.775 30.7 126.615 30.94C126.455 31.18 126.215 31.46 125.895 31.78L116.475 40.18L115.455 41.8L116.475 44.02L125.895 52.42C126.215 52.74 126.455 53.02 126.615 53.26C126.775 53.46 126.855 53.78 126.855 54.22V66.58C126.855 67.54 126.535 68.34 125.895 68.98L113.895 80.98C113.215 81.66 112.415 82 111.495 82H73.395ZM99.375 62.08C100.975 62.08 102.295 61.58 103.335 60.58C104.375 59.54 104.895 58.22 104.895 56.62C104.895 54.98 104.375 53.66 103.335 52.66C102.295 51.62 100.975 51.1 99.375 51.1C97.775 51.1 96.455 51.62 95.415 52.66C94.375 53.66 93.855 54.98 93.855 56.62C93.855 58.22 94.375 59.54 95.415 60.58C96.455 61.58 97.775 62.08 99.375 62.08ZM99.075 32.62C100.595 32.62 101.835 32.12 102.795 31.12C103.795 30.12 104.295 28.88 104.295 27.4C104.295 25.88 103.795 24.64 102.795 23.68C101.835 22.68 100.595 22.18 99.075 22.18C97.595 22.18 96.355 22.68 95.355 23.68C94.355 24.64 93.855 25.88 93.855 27.4C93.855 28.88 94.355 30.12 95.355 31.12C96.355 32.12 97.595 32.62 99.075 32.62Z" fill="black"/>
</mask>
<g mask="url(#mask1_1_136)">
<path d="M21.48 81.22L20.0595 82.628L20.0887 82.657L20.1191 82.686L21.48 81.22ZM14.82 74.5L16.2405 73.092L16.2355 73.087L16.2305 73.082L14.82 74.5ZM3.47999 63.22L2.06577 64.634L2.06953 64.638L3.47999 63.22ZM2.63999 62.2L0.716941 62.749L0.768006 62.928L0.851134 63.094L2.63999 62.2ZM2.63999 21.82L0.851132 20.9256L0.787569 21.0527L0.742623 21.1875L2.63999 21.82ZM3.47999 20.8L4.89424 22.2142L4.90354 22.2048L3.47999 20.8ZM12.48 11.68L11.0753 10.2563L11.0658 10.2657L11.0565 10.2752L12.48 11.68ZM21.48 2.8L22.8847 4.22371L22.8942 4.2142L21.48 2.8ZM42.06 21.1L40.1197 20.6149L40.0947 20.715L40.0801 20.8172L42.06 21.1ZM41.52 22L42.9234 23.425L42.9288 23.4196L42.9342 23.4142L41.52 22ZM33.6 29.8L32.1966 28.375L32.1845 28.387L32.1725 28.3992L33.6 29.8ZM27.3 36.22L25.8725 34.8192L25.3 35.4026V36.22H27.3ZM27.3 48.82H25.3V49.6386L25.874 50.2223L27.3 48.82ZM34.38 56.02L32.954 57.4223L32.9688 57.4374L32.984 57.4521L34.38 56.02ZM41.52 62.98L40.124 64.412L40.1625 64.45L40.203 64.485L41.52 62.98ZM42.06 63.88L40.0754 64.128L40.0904 64.248L40.1197 64.365L42.06 63.88ZM23.88 80C23.16 80 22.9148 79.823 22.8409 79.754L20.1191 82.686C21.1652 83.657 22.52 84 23.88 84V80ZM22.9005 79.812L16.2405 73.092L13.3995 75.908L20.0595 82.628L22.9005 79.812ZM16.2305 73.082L4.89045 61.802L2.06953 64.638L13.4095 75.918L16.2305 73.082ZM4.8942 61.8058C4.70277 61.6143 4.57014 61.4684 4.48385 61.3636C4.38689 61.2458 4.39265 61.2332 4.42885 61.3056L0.851134 63.094C1.12959 63.651 1.62111 64.19 2.06577 64.634L4.8942 61.8058ZM4.56304 61.6506C4.57235 61.6831 4.55702 61.639 4.54247 61.4717C4.52897 61.3165 4.51999 61.1024 4.51999 60.82H0.519989C0.519989 61.4784 0.554389 62.181 0.716941 62.749L4.56304 61.6506ZM4.51999 60.82V23.2H0.519989V60.82H4.51999ZM4.51999 23.2C4.51999 22.8936 4.52922 22.6707 4.54247 22.5183C4.54901 22.4431 4.55538 22.3988 4.55873 22.3792C4.56287 22.3551 4.55932 22.3866 4.53736 22.4525L0.742623 21.1875C0.545828 21.7779 0.519989 22.5509 0.519989 23.2H4.51999ZM4.42885 22.7144C4.39266 22.7868 4.38689 22.7741 4.48385 22.6564C4.57014 22.5516 4.7028 22.4056 4.89424 22.2142L2.06577 19.3858C1.62111 19.8304 1.12959 20.3687 0.851132 20.9256L4.42885 22.7144ZM4.90354 22.2048L13.9035 13.0848L11.0565 10.2752L2.05644 19.3952L4.90354 22.2048ZM13.8847 13.1037L22.8847 4.22371L20.0753 1.3763L11.0753 10.2563L13.8847 13.1037ZM22.8942 4.2142C22.9846 4.1238 23.0421 4.08421 23.0629 4.07161C23.0815 4.06021 23.0575 4.0782 22.9939 4.0924L22.1261 0.187603C21.2788 0.375903 20.5961 0.855403 20.0658 1.3858L22.8942 4.2142ZM22.9939 4.0924C23.1667 4.054 23.4516 4.02 23.88 4.02V0.0200043C23.2684 0.0200043 22.6733 0.066003 22.1261 0.187603L22.9939 4.0924ZM23.88 4.02H40.68V0.0200043H23.88V4.02ZM40.68 4.02C40.8717 4.02 40.6481 4.0666 40.3908 3.8092C40.1334 3.5518 40.18 3.3283 40.18 3.52H44.18C44.18 2.7117 43.9766 1.7381 43.2192 0.980804C42.4619 0.223404 41.4883 0.0200043 40.68 0.0200043V4.02ZM40.18 3.52V20.08H44.18V3.52H40.18ZM40.18 20.08C40.18 20.2913 40.1566 20.4673 40.1197 20.6149L44.0003 21.5851C44.1234 21.0927 44.18 20.5887 44.18 20.08H40.18ZM40.0801 20.8172C40.1056 20.6387 40.1644 20.5321 40.18 20.506C40.1945 20.4818 40.182 20.5096 40.1058 20.5858L42.9342 23.4142C43.3902 22.9582 43.9117 22.2801 44.0399 21.3828L40.0801 20.8172ZM40.1166 20.575L32.1966 28.375L35.0034 31.225L42.9234 23.425L40.1166 20.575ZM32.1725 28.3992L25.8725 34.8192L28.7275 37.6208L35.0275 31.2008L32.1725 28.3992ZM25.3 36.22V48.82H29.3V36.22H25.3ZM25.874 50.2223L32.954 57.4223L35.806 54.6177L28.726 47.4177L25.874 50.2223ZM32.984 57.4521L40.124 64.412L42.916 61.5478L35.776 54.5878L32.984 57.4521ZM40.203 64.485C40.2389 64.517 40.2173 64.506 40.18 64.444C40.1391 64.376 40.0928 64.267 40.0754 64.128L44.0446 63.632C43.9265 62.687 43.4063 61.973 42.837 61.4748L40.203 64.485ZM40.1197 64.365C40.1566 64.513 40.18 64.689 40.18 64.9H44.18C44.18 64.391 44.1234 63.887 44.0003 63.395L40.1197 64.365ZM40.18 64.9V80.5H44.18V64.9H40.18ZM40.18 80.5C40.18 80.692 40.1334 80.468 40.3908 80.211C40.6481 79.953 40.8717 80 40.68 80V84C41.4883 84 42.4619 83.797 43.2192 83.039C43.9766 82.282 44.18 81.308 44.18 80.5H40.18ZM40.68 80H23.88V84H40.68V80ZM47.9484 79.52C47.7567 79.52 47.9803 79.473 48.2377 79.731C48.495 79.988 48.4484 80.212 48.4484 80.02H44.4484C44.4484 80.828 44.6519 81.802 45.4092 82.559C46.1666 83.317 47.1401 83.52 47.9484 83.52V79.52ZM48.4484 80.02V61.78H44.4484V80.02H48.4484ZM48.4484 61.78C48.4484 61.5883 48.495 61.8119 48.2377 62.069C47.9803 62.327 47.7567 62.28 47.9484 62.28V58.28C47.1401 58.28 46.1666 58.4834 45.4092 59.2408C44.6519 59.9981 44.4484 60.9717 44.4484 61.78H48.4484ZM47.9484 62.28H66.1284V58.28H47.9484V62.28ZM66.1284 62.28C66.3201 62.28 66.0966 62.327 65.8392 62.069C65.5819 61.8119 65.6284 61.5883 65.6284 61.78H69.6284C69.6284 60.9717 69.425 59.9981 68.6677 59.2408C67.9103 58.4834 66.9367 58.28 66.1284 58.28V62.28ZM65.6284 61.78V80.02H69.6284V61.78H65.6284ZM65.6284 80.02C65.6284 80.212 65.5819 79.988 65.8392 79.731C66.0966 79.473 66.3201 79.52 66.1284 79.52V83.52C66.9367 83.52 67.9103 83.317 68.6677 82.559C69.425 81.802 69.6284 80.828 69.6284 80.02H65.6284ZM66.1284 79.52H47.9484V83.52H66.1284V79.52ZM113.895 2.98L115.309 1.5658L115.288 1.5444L115.266 1.52361L113.895 2.98ZM125.895 14.98L127.351 13.6093L127.331 13.5872L127.309 13.5658L125.895 14.98ZM125.895 31.78L127.226 33.2727L127.269 33.2347L127.309 33.1942L125.895 31.78ZM116.475 40.18L115.144 38.6873L114.933 38.8753L114.783 39.1144L116.475 40.18ZM115.455 41.8L113.763 40.7344L113.185 41.6509L113.638 42.635L115.455 41.8ZM116.475 44.02L114.658 44.855L114.832 45.2347L115.144 45.5127L116.475 44.02ZM125.895 52.42L127.309 51.0058L127.269 50.9653L127.226 50.9273L125.895 52.42ZM126.615 53.26L124.951 54.3694L124.999 54.4416L125.053 54.5094L126.615 53.26ZM103.335 60.58L104.721 62.022L104.735 62.008L104.749 61.9942L103.335 60.58ZM103.335 52.66L101.921 54.0742L101.935 54.0881L101.949 54.1017L103.335 52.66ZM95.415 52.66L96.8012 54.1017L96.8154 54.0881L96.8292 54.0742L95.415 52.66ZM95.415 60.58L94.0008 61.9942L94.0147 62.008L94.0288 62.022L95.415 60.58ZM102.795 31.12L101.381 29.7058L101.366 29.7202L101.352 29.7349L102.795 31.12ZM102.795 23.68L101.352 25.0651L101.38 25.0945L101.41 25.1228L102.795 23.68ZM95.355 23.68L96.7401 25.1228L96.7548 25.1086L96.7692 25.0942L95.355 23.68ZM73.395 80C73.2033 80 73.4269 79.953 73.6842 80.211C73.9416 80.468 73.895 80.692 73.895 80.5H69.895C69.895 81.308 70.0984 82.282 70.8558 83.039C71.6131 83.797 72.5867 84 73.395 84V80ZM73.895 80.5V3.52H69.895V80.5H73.895ZM73.895 3.52C73.895 3.3283 73.9416 3.5519 73.6842 3.8092C73.4269 4.0666 73.2033 4.02 73.395 4.02V0.0200043C72.5867 0.0200043 71.6131 0.223404 70.8558 0.980804C70.0984 1.7381 69.895 2.7117 69.895 3.52H73.895ZM73.395 4.02H111.495V0.0200043H73.395V4.02ZM111.495 4.02C111.897 4.02 112.209 4.13971 112.524 4.43641L115.266 1.52361C114.221 0.540305 112.933 0.0200043 111.495 0.0200043V4.02ZM112.481 4.3942L124.481 16.3942L127.309 13.5658L115.309 1.5658L112.481 4.3942ZM124.439 16.3507C124.735 16.6659 124.855 16.9779 124.855 17.38H128.855C128.855 15.9421 128.335 14.6541 127.351 13.6093L124.439 16.3507ZM124.855 17.38V29.98H128.855V17.38H124.855ZM124.855 29.98C124.855 30.0498 124.848 30.0629 124.855 30.0349C124.862 30.004 124.887 29.9266 124.951 29.8306L128.279 32.0494C128.728 31.3765 128.855 30.6273 128.855 29.98H124.855ZM124.951 29.8306C124.893 29.9175 124.754 30.0928 124.481 30.3658L127.309 33.1942C127.676 32.8272 128.017 32.4425 128.279 32.0494L124.951 29.8306ZM124.564 30.2873L115.144 38.6873L117.806 41.6727L127.226 33.2727L124.564 30.2873ZM114.783 39.1144L113.763 40.7344L117.147 42.8656L118.167 41.2456L114.783 39.1144ZM113.638 42.635L114.658 44.855L118.292 43.185L117.272 40.965L113.638 42.635ZM115.144 45.5127L124.564 53.9127L127.226 50.9273L117.806 42.5273L115.144 45.5127ZM124.481 53.8342C124.754 54.1072 124.893 54.2825 124.951 54.3694L128.279 52.1506C128.017 51.7575 127.676 51.3728 127.309 51.0058L124.481 53.8342ZM125.053 54.5094C124.91 54.33 124.865 54.1768 124.855 54.1351C124.844 54.0938 124.855 54.1128 124.855 54.22H128.855C128.855 53.6209 128.762 52.742 128.177 52.0106L125.053 54.5094ZM124.855 54.22V66.58H128.855V54.22H124.855ZM124.855 66.58C124.855 67.045 124.721 67.325 124.481 67.566L127.309 70.394C128.349 69.355 128.855 68.035 128.855 66.58H124.855ZM124.481 67.566L112.481 79.566L115.309 82.394L127.309 70.394L124.481 67.566ZM112.481 79.566C112.157 79.89 111.858 80 111.495 80V84C112.972 84 114.273 83.43 115.309 82.394L112.481 79.566ZM111.495 80H73.395V84H111.495V80ZM99.375 64.08C101.43 64.08 103.267 63.42 104.721 62.022L101.949 59.1383C101.323 59.7397 100.52 60.08 99.375 60.08V64.08ZM104.749 61.9942C106.199 60.5443 106.895 58.6991 106.895 56.62H102.895C102.895 57.7409 102.551 58.5357 101.921 59.1658L104.749 61.9942ZM106.895 56.62C106.895 54.5174 106.208 52.6484 104.721 51.2183L101.949 54.1017C102.542 54.6716 102.895 55.4426 102.895 56.62H106.895ZM104.749 51.2458C103.299 49.7959 101.454 49.1 99.375 49.1V53.1C100.496 53.1 101.291 53.4441 101.921 54.0742L104.749 51.2458ZM99.375 49.1C97.2959 49.1 95.4507 49.7959 94.0008 51.2458L96.8292 54.0742C97.4593 53.4441 98.2541 53.1 99.375 53.1V49.1ZM94.0288 51.2183C92.5416 52.6484 91.855 54.5174 91.855 56.62H95.855C95.855 55.4426 96.2084 54.6716 96.8012 54.1017L94.0288 51.2183ZM91.855 56.62C91.855 58.6991 92.5509 60.5443 94.0008 61.9942L96.8292 59.1658C96.1991 58.5357 95.855 57.7409 95.855 56.62H91.855ZM94.0288 62.022C95.4834 63.42 97.3195 64.08 99.375 64.08V60.08C98.2305 60.08 97.4266 59.7397 96.8012 59.1383L94.0288 62.022ZM99.075 34.62C101.081 34.62 102.862 33.938 104.238 32.5051L101.352 29.7349C100.808 30.302 100.109 30.62 99.075 30.62V34.62ZM104.209 32.5342C105.603 31.1401 106.295 29.3829 106.295 27.4H102.295C102.295 28.377 101.987 29.0999 101.381 29.7058L104.209 32.5342ZM106.295 27.4C106.295 25.3936 105.613 23.6128 104.18 22.2372L101.41 25.1228C101.977 25.6672 102.295 26.3664 102.295 27.4H106.295ZM104.238 22.2949C102.862 20.862 101.081 20.18 99.075 20.18V24.18C100.109 24.18 100.808 24.498 101.352 25.0651L104.238 22.2949ZM99.075 20.18C97.0921 20.18 95.3349 20.8717 93.9408 22.2658L96.7692 25.0942C97.3751 24.4883 98.098 24.18 99.075 24.18V20.18ZM93.9699 22.2372C92.537 23.6128 91.855 25.3936 91.855 27.4H95.855C95.855 26.3664 96.173 25.6672 96.7401 25.1228L93.9699 22.2372ZM91.855 27.4C91.855 29.3829 92.5467 31.1401 93.9408 32.5342L96.7692 29.7058C96.1633 29.0999 95.855 28.377 95.855 27.4H91.855ZM93.9408 32.5342C95.3349 33.9283 97.0921 34.62 99.075 34.62V30.62C98.098 30.62 97.3751 30.3117 96.7692 29.7058L93.9408 32.5342Z" fill="black"/>
</g>
</svg>
