<svg width="398" height="180" viewBox="0 0 398 180" fill="none" xmlns="http://www.w3.org/2000/svg">
<path d="M119.375 138.625C120.542 138.625 121.417 139.042 122 139.875C122.667 140.625 123.25 141.458 123.75 142.375C124.25 143.208 125.25 145.167 126.75 148.25C128.25 151.25 129.667 154.25 131 157.25C132.333 160.167 133 161.958 133 162.625C133 163.875 132.292 165.083 130.875 166.25C124.958 170.75 117.583 174.167 108.75 176.5C99.9167 178.75 91.7917 179.875 84.375 179.875C66.875 179.875 51.8333 175.917 39.25 168C26.75 160.083 17.125 149.375 10.375 135.875C3.70833 122.375 0.375 107.208 0.375 90.375C0.375 78.2917 2.125 66.875 5.625 56.125C9.20833 45.2917 14.4167 35.75 21.25 27.5C28.0833 19.1667 36.4583 12.6667 46.375 8C56.375 3.25 67.7917 0.875 80.625 0.875C88.2083 0.875 96.2917 1.91667 104.875 4C113.458 6.08333 120.917 9.20833 127.25 13.375C128.917 14.4583 129.75 15.7083 129.75 17.125C129.75 17.5417 129.333 18.75 128.5 20.75C127.75 22.75 126.833 25.0417 125.75 27.625C124.667 30.125 123.625 32.4167 122.625 34.5C121.708 36.5833 121.083 37.9583 120.75 38.625C120.333 39.4583 119.792 40.3333 119.125 41.25C118.542 42.0833 117.667 42.5 116.5 42.5C115.75 42.5 115.042 42.3333 114.375 42C113.792 41.5833 113.167 41.2083 112.5 40.875C107.75 37.875 102.917 35.5 98 33.75C93.1667 31.9167 87.875 31 82.125 31C74.375 31 67.4583 32.75 61.375 36.25C55.2917 39.6667 50.125 44.25 45.875 50C41.7083 55.75 38.5417 62.125 36.375 69.125C34.2083 76.125 33.125 83.125 33.125 90.125C33.125 100.708 34.9583 110.542 38.625 119.625C42.375 128.625 48.0417 135.917 55.625 141.5C63.2083 147 72.75 149.75 84.25 149.75C90.0833 149.75 95.4583 148.958 100.375 147.375C105.375 145.792 110.292 143.458 115.125 140.375C115.792 139.958 116.458 139.583 117.125 139.25C117.792 138.833 118.542 138.625 119.375 138.625ZM154.25 22C154.25 17.4167 155.958 13.5 159.375 10.25C162.792 6.91667 166.792 5.25 171.375 5.25C176.042 5.25 180.125 6.95833 183.625 10.375C187.208 13.7083 189 17.75 189 22.5C189 27.0833 187.292 31.0833 183.875 34.5C180.542 37.8333 176.542 39.5 171.875 39.5C167.125 39.5 163 37.7917 159.5 34.375C156 30.875 154.25 26.75 154.25 22ZM156.125 97.375V69.75C156.125 66.3333 157.833 64.625 161.25 64.625H180.5C183.917 64.625 185.625 66.3333 185.625 69.75C185.625 86.9167 185.667 104.125 185.75 121.375C185.833 138.542 185.875 155.708 185.875 172.875C185.875 176.292 184.167 178 180.75 178H161C157.583 178 155.875 176.292 155.875 172.875C155.875 160.292 155.917 147.708 156 135.125C156.083 122.542 156.125 109.958 156.125 97.375ZM327.625 138.625C328.792 138.625 329.667 139.042 330.25 139.875C330.917 140.625 331.5 141.458 332 142.375C332.5 143.208 333.5 145.167 335 148.25C336.5 151.25 337.917 154.25 339.25 157.25C340.583 160.167 341.25 161.958 341.25 162.625C341.25 163.875 340.542 165.083 339.125 166.25C333.208 170.75 325.833 174.167 317 176.5C308.167 178.75 300.042 179.875 292.625 179.875C275.125 179.875 260.083 175.917 247.5 168C235 160.083 225.375 149.375 218.625 135.875C211.958 122.375 208.625 107.208 208.625 90.375C208.625 78.2917 210.375 66.875 213.875 56.125C217.458 45.2917 222.667 35.75 229.5 27.5C236.333 19.1667 244.708 12.6667 254.625 8C264.625 3.25 276.042 0.875 288.875 0.875C296.458 0.875 304.542 1.91667 313.125 4C321.708 6.08333 329.167 9.20833 335.5 13.375C337.167 14.4583 338 15.7083 338 17.125C338 17.5417 337.583 18.75 336.75 20.75C336 22.75 335.083 25.0417 334 27.625C332.917 30.125 331.875 32.4167 330.875 34.5C329.958 36.5833 329.333 37.9583 329 38.625C328.583 39.4583 328.042 40.3333 327.375 41.25C326.792 42.0833 325.917 42.5 324.75 42.5C324 42.5 323.292 42.3333 322.625 42C322.042 41.5833 321.417 41.2083 320.75 40.875C316 37.875 311.167 35.5 306.25 33.75C301.417 31.9167 296.125 31 290.375 31C282.625 31 275.708 32.75 269.625 36.25C263.542 39.6667 258.375 44.25 254.125 50C249.958 55.75 246.792 62.125 244.625 69.125C242.458 76.125 241.375 83.125 241.375 90.125C241.375 100.708 243.208 110.542 246.875 119.625C250.625 128.625 256.292 135.917 263.875 141.5C271.458 147 281 149.75 292.5 149.75C298.333 149.75 303.708 148.958 308.625 147.375C313.625 145.792 318.542 143.458 323.375 140.375C324.042 139.958 324.708 139.583 325.375 139.25C326.042 138.833 326.792 138.625 327.625 138.625ZM362.5 22C362.5 17.4167 364.208 13.5 367.625 10.25C371.042 6.91667 375.042 5.25 379.625 5.25C384.292 5.25 388.375 6.95833 391.875 10.375C395.458 13.7083 397.25 17.75 397.25 22.5C397.25 27.0833 395.542 31.0833 392.125 34.5C388.792 37.8333 384.792 39.5 380.125 39.5C375.375 39.5 371.25 37.7917 367.75 34.375C364.25 30.875 362.5 26.75 362.5 22ZM364.375 97.375V69.75C364.375 66.3333 366.083 64.625 369.5 64.625H388.75C392.167 64.625 393.875 66.3333 393.875 69.75C393.875 86.9167 393.917 104.125 394 121.375C394.083 138.542 394.125 155.708 394.125 172.875C394.125 176.292 392.417 178 389 178H369.25C365.833 178 364.125 176.292 364.125 172.875C364.125 160.292 364.167 147.708 364.25 135.125C364.333 122.542 364.375 109.958 364.375 97.375Z" fill="#007BFF"/>
</svg>
